<?xml version="1.0" encoding="UTF-8"?>
<svg data-bbox="1.82 0 216.313 331.125" height="335" width="224" xmlns="http://www.w3.org/2000/svg" data-type="ugc">
    <g>
        <path fill="#FCAE0B" d="M110 0h3c-.302 4.497-.68 8.593-2.5 12.75-1.959 4.697-2.044 9.457-2.29 14.492C108 30 108 30 107 32h-2l-.812 2.125c-1.256 3.04-2.69 5.948-4.188 8.875l2.375.438C105 44 105 44 107 45l3-12h3c1 3 1 3 0 6a80 80 0 0 0-.316 4.23l-.127 2.432-.12 2.526-.13 2.56A2136 2136 0 0 0 112 57a56.5 56.5 0 0 0 7-4h3c-.475 2.768-.987 4.973-2.25 7.5-1.01 2.514-1.01 2.514.063 5.063 3.113 3.469 6.815 4.952 11.187 6.437h2c-.372-5.769-1.293-9.822-4-15-.187-2.875-.187-2.875 0-5h-2l-1-9 4 1c1.195 2.652 1.195 2.652 2.125 5.938 1.166 4.477 1.166 4.477 3.875 8.062l4-2c5.743 6.802 10.588 14.943 11 24l7-1c1.177 3.678 1.036 7.167 1 11l1.908.67c2.888 1.02 5.771 2.05 8.655 3.08l3.001 1.055C178.087 96.786 182.96 99.017 188 102c2.337.85 2.337.85 4.438 1.25L196 104l.367-2.09A371 371 0 0 1 200 84h2a271 271 0 0 1 6.973 21.055c.89 2.952.89 2.952 2.58 5.261 1.703 3.159 1.757 5.01 1.635 8.57l-.07 3.343-.118 3.459q-.115 3.411-.187 6.824l-.106 3.045L213 138l3 2c.36 2.83.559 5.474.625 8.313q.077 2.275.164 4.55l.077 2.175c.098 2.125.098 2.125.747 4.806.52 2.899-.665 4.545-1.906 7.117-1.341 3.869-1.09 8.001-.707 12.039l1 2a67 67 0 0 1 .281 4.063l.114 2.414.21 5.046.114 2.415.092 2.214c.089 1.942.089 1.942 1.189 3.848a81 81 0 0 1 .125 4.938l.008 2.652C218 211 218 211 217 214a116 116 0 0 0-.246 5.297l-.1 3.156q-.09 3.273-.172 6.547c-.315 9.673-1.32 16.135-8.482 23-3.252 2.774-6.621 5.383-10 8-5.62 4.483-11.103 9.048-16.375 13.938-3.896 3.59-7.898 6.88-12.125 10.062-7.953 6.022-15.74 12.001-21.25 20.438-2.93 4.45-5.143 5.775-10.25 7.562-7.208 3.952-13.45 8.835-19.497 14.355-3.05 2.715-5.323 4.631-9.503 4.645-2.078-1.047-2.078-1.047-4.25-2.75-3.172-2.387-6.347-4.66-9.723-6.746-8.677-5.367-16.285-11.028-23.586-18.168-2.207-2.342-2.207-2.342-4.441-3.336v-2l-1.715-.746c-2.677-1.47-4.615-3.232-6.847-5.317a214 214 0 0 0-11.063-9.5c-3.282-2.649-6.337-5.327-9.25-8.375-3.252-3.372-6.808-6.155-10.562-8.937C17.616 257.681 6.836 247.125 3 235c-.355-3.323-.42-6.641-.484-9.98l-.073-2.934q-.073-3.07-.131-6.14c-.061-3.106-.145-6.21-.23-9.315l-.129-5.986-.078-2.78c-.085-5.451.441-10.4 1.663-15.717.61-2.839.728-5.562.712-8.46l.016-2.926c-.114-2.766-.114-2.766-1.332-5.086-1.333-3.82-.674-7.26-.122-11.176q.307-2.434.61-4.867l.307-2.402c.358-2.947.61-5.896.833-8.856.08-1.022.158-2.044.239-3.098.146-2.401.24-4.806.304-7.21.24-7.732 1.22-14.087 4.555-21.184 1.412-3.038 2.525-6.083 3.59-9.258l.953-2.836C15.036 91.874 15.558 88.998 16 86h4l4 16q5.066-1.396 10.125-2.812l2.883-.792C41.988 96.996 46.403 95.41 51 93c1.941-.74 3.899-1.415 5.863-2.09C66.86 87.9 66.86 87.9 74 81c.538-4.07.416-7.923 0-12l4 1v5c3.385-3.25 6.347-6.766 9.316-10.39C89 63 89 63 92 63l-1 7h3c1.402-2.617 2.605-5.037 3-8l-2-2c.375-2.437.375-2.437 1-5 .277-3.185.277-3.185-2-6-.789-3.466-.737-6.525 0-10 1.865-2.961 3.965-5.597 6.16-8.32 2.28-3.322 2.722-5.743 2.707-9.707.162-2.397 1-3.872 2.133-5.973q1.008-3.498 2-7c.955-2.686 1.973-5.34 3-8"/>
        <path fill="#060202" d="M124 75c3.792 1.46 7.424 3.13 11.063 4.938l3.097 1.527c4.864 2.629 4.864 2.629 6.84 4.535.426 2.156.426 2.156.313 4.5l-.075 2.344C145 95 145 95 144 98h2l3-10c4 1 4 1 6 2l-1 5 1.746.77c2.505 1.367 4.25 2.952 6.316 4.918 8.042 7.664 8.042 7.664 17.938 11.312l-2.937-1.875C174 108 174 108 173 106c4.566.752 8.781 2.204 13.125 3.75l2.265.801A175 175 0 0 1 206 118c.343 5.056.55 9.954 0 15a112 112 0 0 1-6 5c-.849 4.328-.987 8.597-1 13l8 1c1.656 4.05.195 6.714-1.375 10.625-2.217 5.87-3.466 11.111-3.625 17.375h2l1 12 3 1-.437 2.438a301 301 0 0 0-1.188 8.062c-.095.712-.19 1.423-.29 2.156-.169 2.42-.169 2.42.388 5.075.943 5.85.921 11.73 1.027 17.644l.164 3.906c.153 10.657.153 10.657-3.82 15.29A90 90 0 0 1 200 251l-3.062 2.906L194 256.5c-4.078 3.654-7.834 7.414-11.363 11.602-4.154 4.817-8.759 9.189-13.574 13.336-8.927 7.738-15.925 16.077-22.602 25.804-1.807 2.174-3.745 2.787-6.328 3.809-8.182 3.641-15.07 9.316-21.63 15.304-3.05 2.715-5.323 4.631-9.503 4.645-2.078-1.047-2.078-1.047-4.25-2.75-3.172-2.387-6.347-4.66-9.723-6.746-8.677-5.367-16.285-11.028-23.586-18.168-2.207-2.342-2.207-2.342-4.441-3.336v-2l-1.687-.625C62.08 295.453 60.225 293.006 58 290l-.437-2.062c-.795-2.735-2.668-3.782-4.845-5.48-1.826-1.55-3.288-3.192-4.827-5.024-4.27-4.949-8.873-9.526-13.516-14.122-1.25-1.242-1.25-1.242-2.523-2.51-4.206-4.187-4.206-4.187-8.436-8.349-2.454-2.406-4.63-4.87-6.666-7.64l-1.516-2.043c-2.354-3.375-2.352-5.556-2.332-9.653l.01-3.535.025-3.707.014-3.73q.018-4.573.049-9.145c1.975 1.31 1.975 1.31 4 3 .449 3.423.374 6.715.336 10.164 1.485 8.576 8.258 14.93 14.102 21.024l1.908 2.037C41.788 258.336 41.788 258.336 53 263l3 1c-2.544-2.226-4.489-3.163-7.75-4.25C38.528 256.223 31.602 246.617 25 239l-2.035-2.21c-4.808-5.934-4.65-11.988-4.371-19.313C19 214 19 214 21 211a78 78 0 0 0-1-20l-.437-3.625c-.396-3.222-.396-3.222-1.465-5.434-1.624-4.351-2.373-8.821-3.223-13.379-.182-.928-.364-1.857-.55-2.814-.88-4.644-1.563-8.997-1.325-13.748 2.957-1.478 5.742-1.06 9-1v-12l-4-2c-2.184-1.129-2.184-1.129-4-3-.599-2.785-.92-5.13-1.062-7.937l-.217-2.17c-.131-2.108-.131-2.108.279-5.893 3.009-3.292 6.339-4.777 10.5-6.25l2.781-1.016c2.708-.731 4.93-.875 7.719-.734v2l6-1v2c5.765-1.547 11.212-4.124 14.438-9.312L55 102h-3c1-3 1-3 4.352-4.902a340 340 0 0 1 4.273-2.035q2.115-1.011 4.227-2.028l2.086-1.003c3.099-1.55 6.074-3.28 9.062-5.032q-.105 6.672-.262 13.342a663 663 0 0 0-.084 4.533c-.034 2.18-.087 4.36-.142 6.54l-.08 3.966c-.456 3.817-1.513 6.317-3.432 9.619h-2v-18c-3.402 7.996-5.885 14.286-5 23l-2-1c1.045 5.022 1.045 5.022 4.125 8.938L69 139c-.573 2.867-.861 3.861-3 6-.4 2.323-.74 4.657-1 7-1.812.688-1.812.688-4 1l-3-3 1 10c-4-1-4-1-6-4v-4h-2v-4h-2c-3.523 5.785-4.404 14.28-4 21 1.217 2.885 2.58 4.779 4.602 7.145 2.14 2.84 1.667 5.428 1.398 8.855.88 2.354.88 2.354 2 4l-5-3c1.135 3.291 1.993 3.996 5.125 5.75L56 193c-2 1-2 1-5 1l-2 4-2-4h-2c1.283 2.555 1.283 2.555 3 5h3c1.46 2.647 2 3.894 2 7h2l-1-8c3.461 1.484 5.685 3.446 8.313 6.125l2.402 2.445a142 142 0 0 1 5.66 6.43c5.118 5.965 11.418 11.189 18.188 15.188 3.141 2.335 3.677 4.01 4.437 7.812.125 3.375.125 3.375 0 6l-1-2h-2l.875 1.645L92 243.812l1.125 2.145C94 248 94 248 94 251l3.688.375c2.558.309 4.368.65 6.75 1.688 5.149 1.883 10.467 1.643 15.5-.5L123 251l2-1c-.25 1.887-.25 1.887-1 4-5.56 3.438-11.807 3.414-18 2l-2-1c1.083 2.557 1.083 2.557 3 5 2.86 1.171 2.86 1.171 6 1 2.608-1.265 2.608-1.265 5-3l2.375-.687c4.247-2.124 7.113-5.306 9.625-9.313.404-2.301.404-2.301.5-4.687.924-6.178 5.18-9 9.762-12.7 6.414-5.2 12.241-10.887 18.05-16.738l2.804-2.804c6.349-5.838 6.349-5.838 9.384-13.571.5-3.5.5-3.5 2.5-6.5l-3 1a305 305 0 0 1-.687-5.75l-.387-3.234c.086-3.52.926-4.358 3.074-7.016.323-2.225.323-2.225.125-4.5-.158-3.076 0-5.537.875-8.5-2.947-1.158-2.947-1.158-6-1v-6h-2l.07-2.773.055-3.602.07-3.586c.134-3.15.134-3.15-2.195-5.039-.125-3.125-.125-3.125 0-6l-2.437-.437C158 134 158 134 157 133a100 100 0 0 1 0-5h-2l-1 3-3-2c-.437-6.125-.437-6.125 1-9 .121-1.643.175-3.29.188-4.937l.042-2.653c-.063-2.672-.063-2.672-2.23-5.41v6c-5.972-5.733-10.871-11.012-13.96-18.75-1.915-4.145-4.806-8.016-8.04-11.25a100 100 0 0 1 0-5l-4 1z"/>
        <path fill="#F50403" d="M69 140a91 91 0 0 1 4 4v2l3 1c1.35 2.702 1.339 5.118 1.563 8.125l.253 3.32L78 161l-4 2-2-3-1 2h-4l-1-2-3-1c.048 5.144.048 5.144 2.227 9.61 3.039 2.649 5.767 4.036 9.773 4.39l1-3 3.375 1.938c4.046 2.322 6.428 3.193 11.173 3.239l3.52.039 3.823.022 3.916.025q4.11.022 8.222.032c3.501.011 7.002.046 10.504.085 3.348.033 6.697.037 10.045.046l3.798.053c8.615-.007 8.615-.007 15.624-4.479 1.564-1.623 1.564-1.623 2.688-3.25L155 165h3c-1.125 2.972-2.223 5.334-4 8 3.432-.264 3.432-.264 7-1 2.275-3.412 2.566-5.657 3.125-9.687l.508-3.575L165 156h2v6l5-1c2.37 3.625 1.844 5.865 1 10l.125 2.563C173 176 173 176 171.438 178.188c-2.186 4.276-1.183 8.187-.438 12.812h2c-.545 8.258-3.487 12.624-9.293 18.315-2.087 2.06-4.13 4.16-6.176 6.26a4268 4268 0 0 1-4.969 5.05l-2.382 2.424c-4.78 4.784-9.663 9.008-15.17 12.945-3.193 3.187-3.417 6.79-4.19 11.096-1.577 5.597-5.819 9.148-10.722 12.027-1.785.82-1.785.82-5.098 1.883l-2.625.875c-3.315.174-4.822-.818-7.375-2.875-.64-2.113-.64-2.113-1-4 .69.095 1.38.19 2.09.29 6.533.77 11.574.476 17.91-1.29v-3l-2.312 1.438c-6.967 4.05-13.983 2.985-21.5 1.125-5.602-1.813-5.602-1.813-7.907-4.762C90.95 245.847 90 243.256 90 240h2l-.437-2.187C91 235 91 235 90.743 232.527c-.977-3.325-2.264-3.975-5.18-5.777-8.993-5.944-16.304-13.319-23.453-21.32-2.523-2.808-4.979-5.308-8.11-7.43l1 2c.04 2 .043 4 0 6h-2l-1.312-2.937c-1.39-3.34-1.39-3.34-4.688-4.063-1.187-2.562-1.187-2.562-2-5h2l2 3 1-4h5l-2.937-1.25C49 190 49 190 48.125 187.813L48 186l4 1-2-2 .25-3.062c-.276-4.344-.712-4.71-3.375-7.813-3.914-5.313-2.933-9.998-2.155-16.185.63-3.998 1.332-7.067 4.28-9.94h2v4h2l1.313 3.438L56 159l3 1-1-2.437c-1.207-4.301-1.177-8.133-1-12.563h1l1 7h5l.25-3.187c.803-4.083 1.943-5.825 4.75-8.813"/>
        <path fill="#ED0B0A" d="m126 43 4 1c1.195 2.652 1.195 2.652 2.125 5.938 1.166 4.477 1.166 4.477 3.875 8.062l4-2c5.743 6.802 10.588 14.943 11 24l7-1c1.177 3.678 1.036 7.167 1 11l1.908.67c2.888 1.02 5.771 2.05 8.655 3.08l3.001 1.055C178.087 96.786 182.96 99.017 188 102c2.337.85 2.337.85 4.438 1.25L196 104l.367-2.09A371 371 0 0 1 200 84h2a271 271 0 0 1 6.973 21.055c.89 2.952.89 2.952 2.58 5.261 1.703 3.159 1.757 5.01 1.635 8.57l-.07 3.343c-.04 1.141-.078 2.282-.118 3.459q-.115 3.411-.187 6.824l-.106 3.045L213 138l3 2c.36 2.83.559 5.474.625 8.313q.077 2.275.164 4.55l.077 2.175c.098 2.125.098 2.125.747 4.806.52 2.899-.665 4.545-1.906 7.117-1.341 3.869-1.09 8.001-.707 12.039l1 2a67 67 0 0 1 .281 4.063l.114 2.414.21 5.046.114 2.415.092 2.214c.089 1.942.089 1.942 1.189 3.848a81 81 0 0 1 .125 4.938l.008 2.652C218 211 218 211 217 214a116 116 0 0 0-.246 5.297l-.1 3.156q-.09 3.273-.172 6.547c-.315 9.673-1.32 16.135-8.482 23-3.252 2.774-6.621 5.383-10 8-5.62 4.483-11.103 9.048-16.375 13.938-4.51 4.16-9.216 7.89-14.112 11.571-3.846 2.914-7.248 5.946-10.513 9.491l-2-1q3.745-3.786 7.5-7.562l2.11-2.135c4.06-4.08 8.207-7.986 12.585-11.727a104 104 0 0 0 11.743-12.076c2.696-3.222 5.687-5.877 8.937-8.531L200 250l1.57-1.279c4.036-3.794 4.854-6.813 5.051-12.326q-.046-3.792-.184-7.583l-.056-3.79c-.132-6.845-.537-13.604-1.318-20.405-.101-4.21 1.236-7.812 2.937-11.617l-4-1v-12h-2c-.805-7.764 1.09-13.868 3.906-20.996 1.265-2.941 1.265-2.941 1.094-6.004l-8-2c-.761-11.557-.761-11.557 1.043-14.977 1.332-1.335 1.332-1.335 3.957-3.023h2v-15l-3.5-1.125c-5.276-1.75-10.464-3.72-15.65-5.717A136 136 0 0 0 174 107l8 6-2 1c-7.892-3.552-14.453-9.468-21-15a917 917 0 0 0-5-4l1-5-6-2-3 10h-2V86l-4.937-2.687A1769 1769 0 0 1 124 75v4l4-1 .625 2.5c1.213 3.087 2.24 4.78 4.25 7.313 2.2 2.779 3.672 5.256 4.938 8.562 2.399 5.9 6.792 10.126 11.187 14.625v-5c2 1.375 2 1.375 4 4 .5 4.02.842 8.316-1 12-.04 2.333-.043 4.667 0 7l2 1 1-2h2l.188 2.375L158 133l2.438.875L163 135c1.25 3.563 1.25 3.563 2 7l1 1a60 60 0 0 1 .125 4.313l.008 2.363c-.128 2.237-.514 4.177-1.133 6.324h-2l-1-11c-2.954 4.266-2.954 4.266-5 9l-5-2v-2h2v-2l-4 1 1.125-3.125c.974-4.312.446-5.861-1.125-9.875-.125-2.875-.125-2.875 0-5l-8 2-.148-1.934-.227-2.504c-.07-.823-.14-1.647-.21-2.496L141 124l-2-1v6l-3-1c-.879-2.328-.879-2.328-1.562-5.25-.709-2.96-1.407-5.676-2.59-8.484L131 112l1-2 3 1v2h2c-.968-3.795-.968-3.795-3-7-.572-2.572-1.029-5.158-1.5-7.75-.28-2.208-.28-2.208-1.5-3.25v4h-2c-1.858-3.135-2.201-5.375-2-9l-6 1V71c10.125 3.375 10.125 3.375 15 6l-.437-1.793c-.971-4.132-1.839-7.93-1.563-12.207h-2c-2.153-3.858-3.393-6.551-3-11h-2z"/>
        <path fill="#EC0A0B" d="M86 70h2l-2 6h6q.04 4.375.063 8.75l.025 2.5.01 2.422.016 2.222C91.996 94.08 91.715 95.929 91 98l-2 1v13l-4 1 .035 3.762.028 4.926.025 2.474c.016 4.083-.058 7.855-1.088 11.838h-3l1.5 2.375C84 141 84 141 84 143c-3.354-.95-6.692-1.897-10-3l1 4c-1.562-1.25-1.562-1.25-3-3 .159-2.544.804-3.75 2.375-5.75C76 134 76 134 79 134l-1-11h-2v10c-5.625 1.125-5.625 1.125-9 0l1 4h-3c-2.762-2.762-2.579-5.207-3-9h2l-.312-3.187c-.035-6.304 2.6-12.216 5.312-17.813l2-1-1 19c4.288-4.288 4.149-7.212 4.316-13.074l.063-2.072q.097-3.27.183-6.541l.131-4.44Q74.853 93.436 75 88l-1.489.964c-5.127 3.27-10.346 6.02-15.837 8.616C54.21 99.096 54.21 99.096 52 102h3c-1.148 4.88-4.039 6.95-7.832 9.863-2.567 1.346-4.31 1.351-7.168 1.137v-2l-6 1v-2a631 631 0 0 0-6.625 1.75l-3.727.984c-3.9 1.353-6.601 2.46-9.648 5.266-.5 3.025-.608 4.977-.312 7.938.083 1.093.083 1.093.17 2.21.35 3.079.615 5.296 2.79 7.59a94 94 0 0 0 3.829 1.914C22 139 22 139 22.46 141.942A97 97 0 0 1 22 151l-9 1q.934 5.22 1.875 10.438l.527 2.95c.82 4.539 1.66 9.071 2.606 13.585l.434 2.074c.613 2.145 1.56 3.963 2.558 5.953.16 2.29.16 2.29.063 4.625-.177 3.317-.177 3.317.937 6.375.123 2.143.176 4.29.188 6.438l.042 3.496C22 211 22 211 20 214c-.829 7.091-1.511 14.787 2.5 21 2.892 3.586 6.158 6.844 9.492 10.02 2.008 1.98 3.778 4.056 5.57 6.23 4.061 4.706 8.439 6.967 14.188 9.25 3.238 1.495 4.478 2.477 6.25 5.5l-2-.812c-3.105-1.273-3.105-1.273-6.812-2.375C44.185 260.935 40.78 257.686 37 254l-2.035-1.953C30.398 247.577 26.03 242.96 22 238l-1.512-1.79c-4.009-5.398-4.115-10.63-4.25-17.233.076-3.095.076-3.095-2.238-4.977-.176 3.979-.281 7.956-.375 11.938l-.152 3.384c-.14 7.928 1.214 12.74 6.527 18.678a363 363 0 0 0 5 5l2.954 2.923 1.577 1.556q3.481 3.444 6.955 6.897 1.838 1.822 3.68 3.64 2.667 2.632 5.322 5.277l1.676 1.645c1.317 1.316 2.582 2.685 3.836 4.062v2l3 1v2l1.875.625c2.972 1.923 3.255 4.04 4.125 7.375-3.74-1.581-6.296-3.932-9.25-6.687q-1.477-1.366-2.957-2.731L45 280c-4.067-3.654-8.22-7.196-12.425-10.69q-1.575-1.311-3.148-2.625c-2.19-1.83-4.384-3.651-6.622-5.423-4.247-3.465-7.69-7.385-11.055-11.7l-1.25-1.593c-5.689-7.522-8.102-13.764-8.18-23.242l-.064-2.921q-.06-3.043-.095-6.086c-.036-3.08-.104-6.157-.177-9.236q-.053-2.972-.101-5.945l-.06-2.75c-.045-5.415.51-10.356 1.718-15.637.606-2.84.725-5.566.709-8.464l.016-2.926c-.114-2.766-.114-2.766-1.332-5.086-1.333-3.82-.674-7.26-.122-11.176q.307-2.434.61-4.867l.307-2.402c.358-2.947.61-5.896.833-8.856.08-1.022.158-2.044.239-3.098.146-2.401.24-4.806.304-7.21.24-7.732 1.22-14.087 4.555-21.184 1.412-3.038 2.525-6.083 3.59-9.258l.953-2.836C15.036 91.874 15.558 88.998 16 86h4l1 19q4.815-1.144 9.625-2.312l2.738-.647C39.561 100.526 44.654 98.564 50 95l3.438-.75c6.933-1.618 13.758-5.002 19.3-9.445C75 83 75 83 77 83l-1-6 1 2c2.78-2.086 5.015-4.02 7.188-6.75z"/>
        <path fill="#FDEC10" d="M98 91c2.572 1.286 3.01 2.334 4 5-.437 2.188-.437 2.188-1 4l1 1 1-4h3l1 7h2l-.062-3.25c.048-2.898.194-5.036 1.062-7.75l3 1v14l1-7h4l2-3c.403 6.986-.773 13.36-3 20l-2 2c.319 2.108.319 2.108 1 4l1-2h3v2h5l.375 3.438L126 131l2 1-.543-1.828c-1.759-6.61-1.759-6.61-.082-9.734.536-.475 1.072-.95 1.625-1.438 2.3 3.45 2.27 4.872 2.25 8.938l.016 3.152c-.26 2.841-.8 4.497-2.266 6.91l5-3c-.875 6.75-.875 6.75-2 9l-2 .438-2 .562-1 3 6-1 1 2 5-4 2 1-4 9 4 1 4 1 2-4c.91 3.072 1.253 5.797 1 9l-2 2 3.375-.562C153 163 153 163 155 164l1-3h2c-.329 3.067-.896 3.913-3.312 5.938L152 169l-2.062 2.625c-2.018 2.473-3.02 3.24-5.938 4.375-2.667.267-2.667.267-5.743.29l-3.5.04-3.773.006-3.893.02q-4.08.017-8.16.015c-3.469 0-6.936.027-10.403.061-3.327.028-6.654.027-9.981.029l-3.748.043c-6.948-.036-13.554-.26-18.799-5.504l-1 2c-4.114-.242-6.532-.671-9.937-3.062-2.795-3.981-2.468-6.164-2.063-10.938l4 1v2h4l1-3 3 3 2-1v-10l4 3-1-2.312C79 149 79 149 79 146l9 1-1-8 7 3-3-6h6l-2-15h2l-.505-1.684c-.549-2.569-.531-4.755-.41-7.379l.134-2.914.156-3.023.133-3.023c.39-8.098.39-8.098 1.492-11.977"/>
        <path fill="#560604" d="M203 185c2 3 2 3 2 7l3 2-1.875 1.75c-3.73 3.949-4.449 6.628-4.328 12.14.164 2.374.164 2.374 1.203 5.61 1.072 4.1 1.508 8.217 1.75 12.438l.297 3.964c-.595 5.142-4.329 7.517-8.12 10.65-3.053 2.553-5.866 5.278-8.654 8.112l-1.463 1.475q-2.22 2.24-4.435 4.486c-5.719 5.797-11.41 11.563-17.605 16.859-2.742 2.348-5.377 4.808-8.02 7.266l-3.371 3.125-1.699 1.574a913 913 0 0 1-4.903 4.488c-6.56 5.968-12.916 12.085-19.093 18.45-2.942 2.865-5.979 5.489-9.184 8.05l-1.684 1.428c-1.66 1.319-1.66 1.319-4.816 3.135-12.277-2.203-25.855-18.085-33.625-27.5l-2.414-2.906C74 286 74 286 73 283c2.966 1.31 4.792 2.611 6.84 5.117l1.533 1.84 1.564 1.918C86.376 296.069 89.64 299.716 94 303l2.25 2.375c4.267 4.073 9.118 7.748 14.75 9.625a59 59 0 0 0 6.438-3.687l1.868-1.212C126.05 305.554 131.464 299.907 137 294c4.324-4.412 8.814-8.642 13.313-12.875l2.185-2.066a423 423 0 0 1 12.776-11.536c1.997-1.762 3.877-3.608 5.726-5.523a120 120 0 0 1 8.063-7.5 65.5 65.5 0 0 0 7.437-7.5c4.427-5.208 9.219-10.13 15.5-13l-.437-3.559c-3.22-27.394-3.22-27.394.437-40.441l-1.617 3.367c-5.21 10.524-10.46 17.86-19.547 25.438-10.45 8.755-15.672 20.334-21.363 32.445-3.565 6.656-11.021 10.593-17.058 14.86-10.109 7.179-19.182 14.168-25.415 25.015-2.508 4.354-4.994 6.894-9 9.875l-1 2c9.224-5.826 16.886-12.627 23.969-20.875L133 280h2c0 2 0 2-2.16 4.281L130 287l-2.684 2.719c-4.611 4.657-9.205 9.168-14.316 13.281a176 176 0 0 0-4 4c-3.249-1.052-4.012-2.02-5.746-5.047a209 209 0 0 1-1.692-3.703c-1.737-3.86-3.347-6.995-6.097-10.266-2.653-3.211-3.901-6.143-5.465-9.984a145 145 0 0 0-4.125-6.812l-1.187-1.837c-4.784-7.225-10.558-13.323-16.813-19.288-2.941-2.884-5.063-5.786-7.187-9.313C56.61 234.022 51.463 228.625 46 223l-2.477-2.582c-2.613-2.504-5.365-4.58-8.273-6.73-5.017-4.027-5.017-4.027-6.008-6.836A238 238 0 0 1 29 201c-1.458-2.26-3.16-4.019-5-6v-2c3.441 1.435 5.1 3.145 7.375 6.063 5.807 6.77 13.535 11.209 21.336 15.39 2.705 1.828 3.985 3.674 5.727 6.422 2.016 3.036 3.717 5.502 6.687 7.625 2.892 2.515 3.749 3.982 5.313 7.375 2.011 4.345 4.233 7.176 7.73 10.406 3.947 3.703 7.479 7.9 10.707 12.239 3.619 4.224 8.398 6.644 13.125 9.48l2.098 1.371c3.39 2.162 3.39 2.162 7.3 2.383 11.04-3.2 19.91-12.438 27.094-20.992C140 249 140 249 141.562 247.574c1.808-1.979 2.548-3.975 3.563-6.449 2.66-5.566 6.162-7.992 11.875-10.125h2l1-3c1.46-1.437 1.46-1.437 3.375-3 3.529-2.98 6.773-6.133 10-9.437 3.394-3.472 6.872-6.63 10.75-9.563 5.546-4.285 9.61-9.484 13.875-15a403 403 0 0 1 3.063-3.687z"/>
        <path fill="#EE0909" d="M133 59a2619 2619 0 0 1 3 4l1.605 2.113c3.516 4.888 5.166 7.844 4.395 13.887h2a374 374 0 0 0-.312-5.687l-.176-3.2c-.55-3.348-1.735-5.27-3.512-8.113l1-2c5.473 6.855 7.489 13.422 9 22l1.875.375C154 83 154 83 156 85c.125 3.625.125 3.625 0 7l1.66.48a642 642 0 0 1 16.215 5.02l3.805 1.219c3.32 1.281 3.32 1.281 5.312 2.8 2.867 2.114 5.835 2.75 9.258 3.668l3.828 1.043L199 107l-.07-2.23-.055-2.957-.07-2.918c.204-3.023.926-5.163 2.195-7.895 3.65 2.735 4.376 6.756 5.563 10.938 1.48 5.303 1.48 5.303 3.605 10.367 1.335 2.719.587 4.863-.168 7.695l-2 1c-.468 2.586-.468 2.586-.625 5.563l-.227 3.066L207 132h-1v-14l-3.5-1.125c-5.276-1.75-10.464-3.72-15.65-5.717A136 136 0 0 0 174 107l8 6-2 1c-7.892-3.552-14.453-9.468-21-15a917 917 0 0 0-5-4l1-5-6-2-3 10h-2V86l-4.937-2.687A1769 1769 0 0 1 124 75v4l4-1 .625 2.5c1.213 3.087 2.24 4.78 4.25 7.313 2.2 2.779 3.672 5.256 4.938 8.562 2.399 5.9 6.792 10.126 11.187 14.625v-5c2 1.375 2 1.375 4 4 .5 4.02.842 8.316-1 12-.04 2.333-.043 4.667 0 7l2 1 1-2h2l.188 2.375L158 133l2.438.875L163 135c1.25 3.563 1.25 3.563 2 7l1 1a60 60 0 0 1 .125 4.313l.008 2.363c-.128 2.237-.514 4.177-1.133 6.324h-2l-1-11c-2.954 4.266-2.954 4.266-5 9l-5-2v-2h2v-2l-4 1 1.125-3.125c.974-4.312.446-5.861-1.125-9.875-.125-2.875-.125-2.875 0-5l-8 2-.148-1.934-.227-2.504c-.07-.823-.14-1.647-.21-2.496L141 124l-2-1v6l-3-1c-.879-2.328-.879-2.328-1.562-5.25-.709-2.96-1.407-5.676-2.59-8.484L131 112l1-2 3 1v2h2c-.968-3.795-.968-3.795-3-7-.572-2.572-1.029-5.158-1.5-7.75-.28-2.208-.28-2.208-1.5-3.25v4h-2c-1.858-3.135-2.201-5.375-2-9l-6 1V71c10.125 3.375 10.125 3.375 15 6l-.656-2.922-.844-3.828-.844-3.797C133 63 133 63 133 59"/>
        <path fill="#FB940A" d="M110 0h3c-.302 4.497-.68 8.593-2.5 12.75-1.968 4.698-1.998 9.453-2.191 14.492C108 30 108 30 106 32v-4a2580 2580 0 0 0-3.937 4.875l-2.215 2.742C96.498 39.937 96.416 43.651 97 49c1.468 2.265 1.468 2.265 3 4-.312 2.063-.312 2.063-1 4v3l1 1c.125 1.81.176 3.624.188 5.438l.042 2.996C100 72 100 72 98 74a90 90 0 0 0-1 6h2l1 10h-3v31h-2l.438 1.758c1.07 4.509 1.801 8.573 1.562 13.242l-5 1 2 5c-4.875-.875-4.875-.875-6-2l1 8c-6.625.25-6.625.25-10-2l1 2.313C81 151 81 151 81 154l-3-1-3-6a283 283 0 0 0-5-5c-2.48-3.505-3-4.586-3-9h9v-10h2l1 11h-3l-1 3-2 1v1l1.563.313c3.297.93 6.303 2.301 9.437 3.687l-1.5-1.812C81 139 81 139 81 136l2-1c1.03-2.934 1.117-5.677 1.098-8.766l-.01-2.695-.025-2.789-.014-2.836Q84.03 114.456 84 111l1 2h2c1.382-2.765 1.095-5.046 1.063-8.125l-.028-3.32L88 99l3-1-.016-1.697q-.029-3.808-.046-7.615l-.026-2.67-.01-2.569-.016-2.364C91 79 91 79 92 76h-6l2-6-2.25 2.25L83 75l-2.187 2.25C79 79 79 79 77 80v3a76 76 0 0 1-6.562 4.5c-.61.39-1.219.781-1.846 1.184-5.895 3.705-11.745 6.326-18.6 7.691-2.132.582-2.132.582-4.344 2.055-7.357 4.362-16.207 5.998-24.648 6.57-.847-5.08-1.09-9.848-1-15 2.214 3.796 2.975 7.763 4 12 3.378-.927 6.752-1.869 10.125-2.812l2.883-.792C41.988 96.996 46.403 95.41 51 93c1.941-.74 3.899-1.415 5.863-2.09C66.86 87.9 66.86 87.9 74 81c.538-4.07.416-7.923 0-12l4 1v5c3.385-3.25 6.347-6.766 9.316-10.39C89 63 89 63 92 63l-1 7h3c1.402-2.617 2.605-5.037 3-8l-2-2c.375-2.437.375-2.437 1-5 .277-3.185.277-3.185-2-6-.789-3.466-.737-6.525 0-10 1.865-2.961 3.965-5.597 6.16-8.32 2.28-3.322 2.722-5.743 2.707-9.707.162-2.397 1-3.872 2.133-5.973q1.008-3.498 2-7c.955-2.686 1.973-5.34 3-8"/>
        <path fill="#EE0C0B" d="M16 86h4v4h-2l-.316 2.984c-.62 4.328-2.042 8.206-3.622 12.266l-.802 2.14c-1.195 3.13-2.394 5.812-4.26 8.61a101 101 0 0 0-.562 7.527l-.112 2.255c-.117 2.385-.223 4.77-.326 7.156q-.205 4.67-.437 9.34l-.114 2.282c-.307 5.456-1.03 10.738-2.132 16.096-.464 3.43.601 6.098 1.683 9.344.307 4.31.305 8.51-.562 12.75-.601 3.09-.354 5.241.562 8.25 2.323 1.628 2.323 1.628 5 3a105 105 0 0 1 4 5l1.75 1.563C19 202 19 202 19 206l3-1c.25 5.625.25 5.625-2 9-.829 7.091-1.511 14.787 2.5 21 2.892 3.586 6.158 6.844 9.492 10.02 2.008 1.98 3.778 4.056 5.57 6.23 4.061 4.706 8.439 6.967 14.188 9.25 3.238 1.495 4.478 2.477 6.25 5.5l-2-.812c-3.105-1.273-3.105-1.273-6.812-2.375C44.185 260.935 40.78 257.686 37 254l-2.035-1.953C30.398 247.577 26.03 242.96 22 238l-1.512-1.79c-4.009-5.398-4.115-10.63-4.25-17.233.076-3.095.076-3.095-2.238-4.977-.176 3.979-.281 7.956-.375 11.938l-.152 3.384c-.14 7.928 1.214 12.74 6.527 18.678a363 363 0 0 0 5 5l2.954 2.923 1.577 1.556q3.481 3.444 6.955 6.897 1.838 1.822 3.68 3.64 2.667 2.632 5.322 5.277l1.676 1.645c1.317 1.316 2.582 2.685 3.836 4.062v2l3 1v2l1.875.625c2.972 1.923 3.255 4.04 4.125 7.375-3.74-1.581-6.296-3.932-9.25-6.687q-1.477-1.366-2.957-2.731L45 280c-4.067-3.654-8.22-7.196-12.425-10.69q-1.576-1.311-3.148-2.625c-2.19-1.83-4.384-3.651-6.622-5.423-4.247-3.465-7.69-7.385-11.055-11.7l-1.25-1.593c-5.689-7.522-8.102-13.764-8.18-23.242l-.064-2.921q-.06-3.043-.095-6.086c-.036-3.08-.104-6.157-.177-9.236q-.053-2.972-.101-5.945l-.06-2.75c-.045-5.415.51-10.356 1.718-15.637.606-2.84.725-5.566.709-8.464l.016-2.926c-.114-2.766-.114-2.766-1.332-5.086-1.333-3.82-.674-7.26-.122-11.176q.307-2.434.61-4.867l.307-2.402c.358-2.947.61-5.896.833-8.856.08-1.022.158-2.044.239-3.098.146-2.401.24-4.806.304-7.21.24-7.732 1.22-14.087 4.555-21.184 1.412-3.038 2.525-6.083 3.59-9.258l.953-2.836C15.036 91.874 15.558 88.998 16 86"/>
        <path fill="#E00508" d="M203 185c2 3 2 3 2 7l3 2-1.875 1.75c-3.73 3.949-4.449 6.628-4.328 12.14.164 2.374.164 2.374 1.203 5.61 1.072 4.1 1.508 8.217 1.75 12.438l.297 3.964c-.595 5.142-4.329 7.517-8.12 10.65-3.053 2.553-5.866 5.278-8.654 8.112l-1.463 1.475q-2.22 2.24-4.435 4.486c-5.719 5.797-11.41 11.563-17.605 16.859-2.742 2.348-5.377 4.808-8.02 7.266l-3.371 3.125-1.699 1.574a913 913 0 0 1-4.903 4.488c-6.56 5.968-12.916 12.085-19.093 18.45-2.942 2.865-5.979 5.489-9.184 8.05l-1.684 1.428c-1.66 1.319-1.66 1.319-4.816 3.135-12.277-2.203-25.855-18.085-33.625-27.5l-2.414-2.906C74 286 74 286 73 283c2.966 1.31 4.792 2.611 6.84 5.117l1.533 1.84 1.564 1.918C86.376 296.069 89.64 299.716 94 303l2.25 2.375c4.267 4.073 9.118 7.748 14.75 9.625a59 59 0 0 0 6.438-3.687l1.868-1.212C126.05 305.554 131.464 299.907 137 294c4.324-4.412 8.814-8.642 13.313-12.875l2.185-2.066a423 423 0 0 1 12.776-11.536c1.997-1.762 3.877-3.608 5.726-5.523a120 120 0 0 1 8.063-7.5 65.5 65.5 0 0 0 7.437-7.5c4.427-5.208 9.219-10.13 15.5-13l-.437-3.559c-3.22-27.394-3.22-27.394.437-40.441l-1.617 3.367c-5.21 10.524-10.46 17.86-19.547 25.438-10.45 8.755-15.672 20.334-21.363 32.445-3.565 6.657-11.023 10.593-17.06 14.862C133.73 272.28 125.677 278.637 119 287l-1-3c7.44-11.816 18.194-21.135 30.102-28.195 4.235-2.588 4.235-2.588 6.593-6.75l.43-2.18.48-2.398c.384-2.41.625-4.796.833-7.227.735-6.852 4.117-9.899 9.195-14.168 2.715-2.388 5.216-4.932 7.742-7.52 3.394-3.471 6.872-6.63 10.75-9.562 5.546-4.285 9.61-9.484 13.875-15a403 403 0 0 1 3.063-3.687z"/>
        <path fill="#FA5C08" d="m121 72 2 1v7l3 1 2-2 .625 2c1.23 2.684 2.439 4.463 4.25 6.75 2.185 2.798 3.668 5.315 4.938 8.625 2.399 5.9 6.792 10.126 11.187 14.625v-5c2 1.375 2 1.375 4 4 .5 4.02.842 8.316-1 12-.04 2.333-.043 4.667 0 7l2 1 1-2h2l.188 2.375L158 133l2.438.875L163 135c1.25 3.563 1.25 3.563 2 7l1 1a60 60 0 0 1 .125 4.313l.008 2.363c-.128 2.237-.514 4.177-1.133 6.324h-2l-1-11c-2.954 4.266-2.954 4.266-5 9l-5-2v-2h2v-2l-4 1 1.125-3.125c.974-4.312.446-5.861-1.125-9.875-.125-2.875-.125-2.875 0-5l-8 2-.148-1.934-.227-2.504c-.07-.823-.14-1.647-.21-2.496L141 124l-2-1v6l-3-1c-.879-2.328-.879-2.328-1.562-5.25-.709-2.96-1.407-5.676-2.59-8.484L131 112l1-2 3 1v2h2c-.968-3.795-.968-3.795-3-7-.572-2.572-1.029-5.158-1.5-7.75-.28-2.208-.28-2.208-1.5-3.25v4h-2c-1.858-3.135-2.201-5.375-2-9l-6 1z"/>
        <path fill="#FDEC0C" d="M97 141c1.746 2.62 2.387 4.038 3 7l-4-1c1.4 4.452 3.601 6.856 7 10 2 2 2 2 2.125 4.625L105 164l1.938.813C109 166 109 166 110 169l2 1-2 5c-4.188-.11-8.375-.241-12.562-.375l-3.58-.094C79.032 174.033 79.032 174.033 76 171l-1 2c-4.114-.242-6.532-.671-9.937-3.062-2.795-3.981-2.468-6.164-2.063-10.938l4 1v2h4l1-3 3 3 2-1v-10l4 3-1-2.312C79 149 79 149 79 146l1.625.938C83.472 148.21 85.891 148.74 89 149c2.2-.933 2.2-.933 4-2l2 1-.687-1.812L94 144c1.438-1.75 1.438-1.75 3-3"/>
        <path fill="#EA0A0A" d="m8 116 2 2c2.108-.319 2.108-.319 4-1l-.027 3.543c-.38 8.184-.38 8.184 2.652 15.277q1.905.976 3.852 1.868C22 139 22 139 22.46 141.938A97 97 0 0 1 22 151l-9 1q.934 5.22 1.875 10.438l.527 2.95c.82 4.539 1.66 9.071 2.606 13.585l.434 2.074c.613 2.145 1.56 3.963 2.558 5.953.16 2.29.16 2.29.063 4.625-.177 3.317-.177 3.317.937 6.375.04 2.333.043 4.667 0 7l-3 1-.25-2.875L18 200c-1.917-1.167-1.917-1.167-4-2l-.875-2c-1.045-2.347-1.045-2.347-4.25-3.25L6 192a431 431 0 0 1-.562-4.312l-.317-2.426C5 183 5 183 6 180c.476-6.027-.105-11.481-1.758-17.285-.282-3.16.462-5.697 1.21-8.751 1.277-6.909 1.328-14.021 1.673-21.026l.262-4.936q.317-6 .613-12.002"/>
        <path fill="#FA7408" d="M90 82h1q.292 2.874.563 5.75l.316 3.234c.107 2.673.087 4.54-.879 7.016l-2 1v13l-4 1 .035 3.762.028 4.926.025 2.474c.016 4.083-.058 7.855-1.088 11.838h-3l1.5 2.375C84 141 84 141 84 143c-3.354-.95-6.692-1.897-10-3l1 4c-1.562-1.25-1.562-1.25-3-3 .159-2.544.804-3.75 2.375-5.75C76 134 76 134 79 134l-1-11h-2v10c-5.625 1.125-5.625 1.125-9 0l1 4h-3c-2.762-2.762-2.579-5.207-3-9h2l-.312-3.187c-.035-6.304 2.6-12.216 5.312-17.813l2-1-1 19c5.984-5.984 5.297-15.377 5.57-23.466.156-3.622.343-6.5 2.43-9.534 2.125-1.25 2.125-1.25 4-2l3 3 3-1z"/>
        <path fill="#FB7C08" d="m139 123 3 1v9l4-2h4c.532 2.08 1.05 4.165 1.563 6.25l.878 3.516c.51 2.955.589 4.478-.441 7.234h2v2h-2c1.634 1.708 2.87 2.935 5 4l.313-2.125c.78-3.266 2.108-5.922 3.687-8.875 2 2 2 2 2.195 4.602l-.07 3.023-.055 3.04L163 156h2a440 440 0 0 1-.312 6.25l-.176 3.516c-.535 3.378-1.04 4.899-3.512 7.234-3.687.25-3.687.25-7 0l.875-2.062c1.251-3.267 2.2-6.566 3.125-9.938l-1.176 1.457c-2.365 2-3.95 2.032-7.012 2.23l-2.73.2L145 165l1-2.125c1.09-3.135 1.153-5.58 1-8.875l-2 4c-2.929-.628-5.361-1.586-8-3 .557-3.344 1.352-6.033 3-9l-2.5-2.062C135 141 135 141 134.563 137.5c.4-3.21 1.033-5.604 2.437-8.5h2z"/>
        <path fill="#FA5D07" d="m106 27 1 2c-.937 2.625-.937 2.625-2 5h-3c-1.906 3.212-2.223 5.539-2.125 9.25l.055 2.703L100 48l1.89-.59L104 47c1.75 1.438 1.75 1.438 3 3l2-5h1l-.07 2.484-.055 3.266-.07 3.234c.19 2.94.668 4.54 2.195 7.016l3-1 1-2h2l-2 19-5-2 1 2c.125 3.563.125 3.563 0 7-1 1-1 1-3.562 1.063L106 85v-2c-2.032.64-2.032.64-4 2-.812 2.555-.812 2.555-1 5-2-2-2-2-2.195-3.945L99 80h-2c-.125-2.875-.125-2.875 0-6l2-2c.32-2.565.32-2.565.25-5.437l.016-2.934c-.082-2.86-.082-2.86-2.266-5.629l2-2c-.33-3.297-.623-4.623-3-7-.788-4.967-.827-7.572 1.719-11.969 2.575-3.545 5.18-6.93 8.281-10.031"/>
        <path fill="#F85408" d="M69 140a91 91 0 0 1 4 4v2l3 1c1.35 2.702 1.339 5.118 1.563 8.125l.253 3.32L78 161l-4 2-2-3-1 2h-4l-1-2-3-1v6h-1c-.09 3.217.16 5.902 1 9-4.97-.412-9.445-.796-14-3l-1 4c-2.856-3.454-4.34-5.612-4.059-10.164q.275-2.235.621-4.461l.268-2.273c.553-4.08 1.143-7.19 4.17-10.102h2v4h2l1.313 3.438L56 159l3 1-1-2.437c-1.207-4.301-1.177-8.133-1-12.563h1l1 7h5l.25-3.187c.803-4.083 1.943-5.825 4.75-8.813"/>
        <path fill="#F9E5E5" d="M110 0h3c-.302 4.497-.68 8.593-2.5 12.75-1.968 4.698-1.998 9.453-2.191 14.492C108 30 108 30 106 32v-4a2580 2580 0 0 0-3.937 4.875l-2.215 2.742C96.498 39.937 96.416 43.651 97 49c1.468 2.265 1.468 2.265 3 4-.312 2.063-.312 2.063-1 4-.046 3.067-.046 3.067.313 6.375C99 67 99 67 96.875 69.688 89.027 76 89.027 76 86 76l2-6-2.25 2.25L83 75l-2.187 2.25C79 79 79 79 77 80v3a76 76 0 0 1-6.562 4.5c-.61.39-1.219.781-1.846 1.184-5.895 3.705-11.745 6.326-18.6 7.691-2.132.582-2.132.582-4.344 2.055-7.357 4.362-16.207 5.998-24.648 6.57-.847-5.08-1.09-9.848-1-15 2.214 3.796 2.975 7.763 4 12 3.378-.927 6.752-1.869 10.125-2.812l2.883-.792C41.988 96.996 46.403 95.41 51 93c1.941-.74 3.899-1.415 5.863-2.09C66.86 87.9 66.86 87.9 74 81c.538-4.07.416-7.923 0-12l4 1v5c3.385-3.25 6.347-6.766 9.316-10.39C89 63 89 63 92 63l-1 7h3c1.402-2.617 2.605-5.037 3-8l-2-2c.375-2.437.375-2.437 1-5 .277-3.185.277-3.185-2-6-.789-3.466-.737-6.525 0-10 1.865-2.961 3.965-5.597 6.16-8.32 2.28-3.322 2.722-5.743 2.707-9.707.162-2.397 1-3.872 2.133-5.973q1.008-3.498 2-7c.955-2.686 1.973-5.34 3-8"/>
        <path fill="#F5D4D2" d="m126 43 4 1c1.195 2.652 1.195 2.652 2.125 5.938 1.166 4.477 1.166 4.477 3.875 8.062l4-2c5.743 6.802 10.588 14.943 11 24l7-1c1.177 3.678 1.036 7.167 1 11l1.908.67c2.888 1.02 5.771 2.05 8.655 3.08l3.001 1.055C178.087 96.786 182.96 99.017 188 102c2.337.85 2.337.85 4.438 1.25L196 104l.367-2.09A371 371 0 0 1 200 84h2a271 271 0 0 1 6.973 21.055c.866 2.953.866 2.953 2.636 5.12 2.237 4.542 1.703 9.155 1.578 14.138l-.04 3.11q-.054 3.79-.147 7.577h-1l-.028-1.833a762 762 0 0 0-.222-8.292l-.043-2.883c-.208-5.985-1.05-9.097-4.707-13.992-1.115-2.735-1.934-5.538-2.75-8.375l-.668-2.23A685 685 0 0 1 202 92c-1.913 3.266-2.357 5.994-2.625 9.75l-.227 2.984L199 107c-6.48-.471-11.173-2.238-17-5-7.093-3.109-14.225-5.841-21.602-8.203C158 93 158 93 156 92l-.375-3.375c-.258-3.67-.258-3.67-2.687-5.562L151 82l-1 2c-1.529-3.276-2.246-6.334-2.812-9.875C146.24 68.979 144.31 66.007 141 62l1.488 2.105c1.76 3.37 1.824 5.438 1.7 9.207l-.083 3.239L144 79h-2l-.125-2.937c-.7-5.197-3.895-8.907-6.875-13.063l-1-2-2 2c-2.153-3.858-3.393-6.551-3-11h-2z"/>
        <path fill="#E10508" d="M24 193c3.441 1.435 5.1 3.145 7.375 6.063 5.805 6.767 13.531 11.21 21.332 15.386 2.723 1.842 4.032 3.726 5.793 6.488 2.48 3.719 4.728 6.548 8.5 9.063l-.496 1.64c-.59 2.762-.6 5.288-.567 8.11l.028 2.984L66 245c-3.409-1.4-4.768-2.787-6.625-5.937-6.217-9.793-14.827-18.503-24.125-25.375-5.017-4.027-5.017-4.027-6.008-6.836A238 238 0 0 1 29 201c-1.458-2.26-3.16-4.019-5-6z"/>
        <path fill="#A51312" d="M200 198c1.96 3.462 2.054 5.913 1.938 9.89-.017 2.378-.017 2.378 1.062 5.61 1.072 4.1 1.508 8.217 1.75 12.438l.297 3.964c-.595 5.142-4.329 7.517-8.12 10.65-3.053 2.553-5.866 5.278-8.654 8.112l-1.463 1.475q-2.22 2.24-4.435 4.486c-5.719 5.797-11.41 11.563-17.605 16.859-2.742 2.348-5.377 4.808-8.02 7.266l-3.371 3.125-1.699 1.574a913 913 0 0 1-4.903 4.488c-6.56 5.968-12.916 12.085-19.093 18.45-2.942 2.865-5.979 5.489-9.184 8.05l-1.684 1.428c-1.66 1.319-1.66 1.319-4.816 3.135-12.277-2.203-25.855-18.085-33.625-27.5l-2.414-2.906C74 286 74 286 73 283c2.966 1.31 4.792 2.611 6.84 5.117l1.533 1.84 1.564 1.918C86.376 296.069 89.64 299.716 94 303l2.25 2.375c4.267 4.073 9.118 7.748 14.75 9.625a59 59 0 0 0 6.438-3.687l1.868-1.212C126.05 305.554 131.464 299.907 137 294c4.324-4.412 8.814-8.642 13.313-12.875l2.185-2.066a423 423 0 0 1 12.776-11.536c1.997-1.762 3.877-3.608 5.726-5.523a120 120 0 0 1 8.063-7.5 65.5 65.5 0 0 0 7.437-7.5c4.427-5.208 9.219-10.13 15.5-13l-.437-3.559c-1.275-10.87-1.815-21.5-1.563-32.441"/>
        <path fill="#F9E8E8" d="M16 86h4v4h-2l-.316 2.984c-.62 4.328-2.042 8.206-3.622 12.266l-.802 2.14c-1.195 3.13-2.394 5.812-4.26 8.61a101 101 0 0 0-.562 7.527l-.112 2.255c-.117 2.385-.223 4.77-.326 7.156q-.205 4.67-.437 9.34l-.114 2.282c-.307 5.456-1.03 10.738-2.132 16.096-.464 3.43.601 6.098 1.683 9.344.72 8.438.72 8.438-1.004 12.176-1.506 4.269-1.247 8.394-1.184 12.887l.031 3.004q.04 3.233.1 6.465.058 3.577.083 7.155c.029 3.75.091 7.5.162 11.25l.016 3.57c.19 7.24 1.222 11.837 5.796 17.493l1.844 2.54q2.57 3.235 5.156 6.46l2.375 3.125c2.943 3.223 6.122 5.692 9.637 8.262C32 266 32 266 34 269c-12.742-5.816-23.655-18.796-30.06-31.024-1.36-4.303-1.338-8.466-1.424-12.956l-.073-2.934q-.073-3.07-.131-6.14c-.061-3.106-.145-6.21-.23-9.315l-.129-5.986-.078-2.78c-.085-5.451.441-10.4 1.663-15.717.61-2.839.728-5.562.712-8.46l.016-2.926c-.114-2.766-.114-2.766-1.332-5.086-1.333-3.82-.674-7.26-.122-11.176q.307-2.434.61-4.867l.307-2.402c.358-2.947.61-5.896.833-8.856.08-1.022.158-2.044.239-3.098.146-2.401.24-4.806.304-7.21.24-7.732 1.22-14.087 4.555-21.184 1.412-3.038 2.525-6.083 3.59-9.258l.953-2.836C15.036 91.874 15.558 88.998 16 86"/>
        <path fill="#FDFBEC" d="m97 139 4 1c1.625 2.875 1.625 2.875 3 6l2 3 1-3 3 1 1 3c2.958 1.224 4.997.965 8 0 2.272 4.544 2.554 8.014 2 13-2.492 2.858-4.424 3.808-8 5-3 0-3 0-5.75-1.562-2.55-2.763-3.096-4.903-4.25-8.438-2.417-2.75-2.417-2.75-5-5l-2-2v-4h3z"/>
        <path fill="#D1350D" d="M86 70h2l-2 6h6c-1.927 11.522-1.927 11.522-4 17-4 0-4 0-7-2h-2c-2.154 4.44-2.417 8.474-2.625 13.313l-.117 2.244A785 785 0 0 0 76 112h-1V88l-8 5c-6.094 3.452-10.097 4.506-17 3v-1l3.25-.625c6.985-1.743 13.877-5.071 19.488-9.57C75 83 75 83 77 83l-1-6 1 2c2.78-2.086 5.015-4.02 7.188-6.75z"/>
        <path fill="#F74009" d="M133 59a2619 2619 0 0 1 3 4l1.605 2.113c3.516 4.888 5.166 7.844 4.395 13.887h2a374 374 0 0 0-.312-5.687l-.176-3.2c-.55-3.348-1.735-5.27-3.512-8.113l1-2c5.473 6.855 7.489 13.422 9 22l1.875.375C154 83 154 83 156 85c.125 2.625.125 2.625 0 5a85 85 0 0 1-7-2l-3 10h-2V86l-4.937-2.687A1769 1769 0 0 1 124 75v4l4-1-2 4-3-2a101 101 0 0 1-1-7l-1-2q2.065.648 4.125 1.313l2.32.738c2.974 1.105 5.74 2.492 8.555 3.949l-.656-2.922-.844-3.828-.844-3.797C133 63 133 63 133 59"/>
        <path fill="#FCAB09" d="M161 143c2 2 2 2 2.195 4.602l-.07 3.023-.055 3.04L163 156h2a440 440 0 0 1-.312 6.25l-.176 3.516c-.535 3.378-1.04 4.899-3.512 7.234-3.687.25-3.687.25-7 0l.875-2.062c1.251-3.267 2.2-6.566 3.125-9.938l-1.176 1.457c-2.365 2-3.95 2.032-7.012 2.23l-2.73.2L145 165l.938-2.062c1.22-3.001 1.22-3.001 1.437-6.625C148 153 148 153 149.75 151.375c2.25-.375 2.25-.375 5 1L157 154l.313-2.125c.78-3.266 2.108-5.922 3.687-8.875"/>
        <path fill="#D5090B" d="M67 248c3.022 1.368 5.246 2.951 7.688 5.188 2.836 2.578 5.715 4.775 8.874 6.937 8.04 6.183 11.269 16.06 14.403 25.367 1.39 3.367 3.347 5.97 5.668 8.754 2.307 2.96 3.367 4.965 3.367 8.754 9.224-5.826 16.886-12.627 23.969-20.875L133 280h2c0 2 0 2-2.16 4.281L130 287l-2.684 2.719c-4.611 4.657-9.205 9.168-14.316 13.281a176 176 0 0 0-4 4c-3.249-1.052-4.012-2.02-5.746-5.047a209 209 0 0 1-1.692-3.703c-1.737-3.86-3.347-6.995-6.097-10.266-2.653-3.211-3.901-6.143-5.465-9.984a146 146 0 0 0-4.125-6.812l-1.18-1.833C80.983 263.737 76.623 258.883 72 254a291 291 0 0 1-5-6"/>
        <path fill="#FD9C0A" d="M99 61h1c.054 1.791.093 3.583.125 5.375l.07 3.023C100 72 100 72 98 74a90 90 0 0 0-1 6h2l1 10h-3v18l-5-1-1-5h-1v11l-2-1V99l3-1-.016-1.697q-.029-3.808-.046-7.615l-.026-2.67-.01-2.569-.016-2.364C91 79 91 79 92 76l-4-1c5.75-4 5.75-4 8-4 1.884-3.265 2.493-6.281 3-10"/>
        <path fill="#FCAC0A" d="m89 101 3 1v5l5 1v13h-2l.438 1.758c1.07 4.509 1.801 8.573 1.562 13.242l-5 1 2 5-5-1c-1.63-4.791-2.206-8.056-1-13h2c.376-6.313.376-6.313-2-12h-2v3h-2v-8l1 2h2l1-2v2h2z"/>
        <path fill="#E60A0B" d="m155 90 1 2c1.836.74 1.836.74 4.125 1.313a388 388 0 0 1 13.75 4.187l3.805 1.219c2.967 1.145 5.04 2.086 7.32 4.281.25 2.688.25 2.688 0 5l4 2c-2 1-2 1-4.602.223l-3.023-1.16-3.04-1.153L176 107l-1 1 7 5-2 1c-7.892-3.552-14.453-9.468-21-15a917 917 0 0 0-5-4z"/>
        <path fill="#D72E2D" d="M213 243c0 3.53-.995 4.683-3.266 7.273-3.61 3.594-7.719 6.605-11.734 9.727-5.62 4.484-11.103 9.048-16.375 13.938-4.51 4.16-9.216 7.89-14.112 11.571-3.846 2.914-7.248 5.946-10.513 9.491l-2-1q3.745-3.786 7.5-7.562c.696-.705 1.392-1.41 2.11-2.135 4.06-4.08 8.207-7.986 12.585-11.727a104 104 0 0 0 11.743-12.076c4.965-5.866 9.622-10.25 17.062-12.5a100 100 0 0 0 3-4c2.188-.75 2.188-.75 4-1"/>
        <path fill="#D61615" d="M18 252c6.482.298 9.103 2.249 13.371 6.715l1.719 1.73a435 435 0 0 1 3.546 3.629 563 563 0 0 0 5.464 5.557 2253 2253 0 0 1 3.459 3.521l1.656 1.683C51 278.765 51 278.765 51 281l3 1v2l1.875.625c2.972 1.923 3.255 4.04 4.125 7.375-3.74-1.581-6.296-3.932-9.25-6.687-3.26-3.026-6.538-6.007-9.937-8.875-2.85-2.462-5.301-5.079-7.75-7.938-3.384-3.92-7.018-7.023-11.18-10.09C20 257 20 257 18 255z"/>
        <path fill="#F6D7D4" d="m126 43 4 1c1.195 2.652 1.195 2.652 2.125 5.938 1.166 4.477 1.166 4.477 3.875 8.062l4-2c5.743 6.802 10.588 14.943 11 24l7-1 1 4-2-1-1 2-5-2-1 2c-1.529-3.276-2.246-6.334-2.812-9.875C146.24 68.979 144.31 66.007 141 62l1.488 2.105c1.76 3.37 1.824 5.438 1.7 9.207l-.083 3.239L144 79h-2l-.125-2.937c-.7-5.197-3.895-8.907-6.875-13.063l-1-2-2 2c-2.153-3.858-3.393-6.551-3-11h-2z"/>
        <path fill="#F33A0A" d="m64 168 2.688 1.938c3.004 1.87 4.863 2.656 8.312 3.062l1-3 3.375 1.938c3.932 2.257 6.298 3.194 10.9 3.267l3.337.06 3.615.051 3.69.063q5.854.097 11.708.184l7.922.13q9.726.162 19.453.307v1l-1.871.025q-9.636.13-19.272.292-3.596.059-7.193.105c-3.445.046-6.89.104-10.336.164l-3.252.035-3.032.06-2.665.04c-2.53.297-4.19 1.006-6.379 2.279l2 1v2c-10.684.767-10.684.767-13.91-1.113C72.75 180.5 72.75 180.5 71 178l-2 1-3-2 1-3-3-2z"/>
        <path fill="#F43209" d="m106 27 1 2c-.937 2.625-.937 2.625-2 5h-3c-1.906 3.212-2.223 5.539-2.125 9.25l.055 2.703L100 48l1.89-.59L104 47c1.75 1.438 1.75 1.438 3 3l2-5h1l-.035 2.555-.028 3.32-.035 3.305c-.1 2.772-.1 2.772 1.098 4.82-.016 2.059-.016 2.059-.25 4.438l-.203 2.37C109.91 68.36 108.99 69.337 107 71l.07-1.863.055-2.45.07-2.425c-.037-2.546-.037-2.546-2.195-5.262v-3h-3v15l-2 1-.148-2.3-.227-3.013-.21-2.988C99.16 60.785 99.16 60.785 97 58l2-2c-.33-3.297-.623-4.623-3-7-.788-4.967-.827-7.572 1.719-11.969 2.575-3.545 5.18-6.93 8.281-10.031"/>
        <path fill="#D1090C" d="M156 242c.878 3.097.994 4.906 0 8l4-1c-2.164 8.177-11.071 12.504-17.587 17.112-8.683 6.17-16.736 12.525-23.413 20.888l-1-3c7.44-11.816 18.194-21.135 30.102-28.195 4.374-2.678 4.374-2.678 6.628-7.067l.458-2.425.48-2.45z"/>
        <path fill="#FCAB0C" d="M121 103h4a367 367 0 0 1 1.063 4.313l.597 2.425C127 112 127 112 126 115v3l3 1-1.062 2c-1.267 4.051-.644 6.834.062 11l-3-1v-7h-5v-2h-3l-1 3-2-2c.29-1.855.29-1.855 1-4l.648-2.113c1.568-4.746 3.313-9.323 5.352-13.887"/>
        <path fill="#F9610D" d="M90 82h1q.292 2.874.563 5.75l.316 3.234c.107 2.673.087 4.54-.879 7.016l-2 1v13c-3-4-3-4-3-6l-3 1-1.312-3.375C80.3 99.825 80.3 99.825 77 98v10h-1a498 498 0 0 1-.125-5.75l-.07-3.234c.192-2.972.56-4.562 2.195-7.016 2.125-1.25 2.125-1.25 4-2l3 3 3-1z"/>
        <path fill="#FBA60C" d="M139 123h2l1 17 2-1c1.517 9.41 1.517 9.41-1 14l4 1-2 4c-2.929-.628-5.361-1.586-8-3 .557-3.344 1.352-6.033 3-9l-2.5-2.062C135 141 135 141 134.563 137.5c.4-3.21 1.033-5.604 2.437-8.5h2z"/>
        <path fill="#F30709" d="m213 213 1 30-6 3c-1.853 2.05-1.853 2.05-3 4l-4-1 1.29-1.085c3.867-3.755 5.134-6.513 5.374-11.927q.023-3.337-.039-6.675a414 414 0 0 1-.023-6.7l-.053-2.975c.462-2.704 2.137-6.638 5.451-6.638"/>
        <path fill="#FAF0EF" d="M110 33h3c1 3 1 3 0 6a80 80 0 0 0-.316 4.23l-.127 2.432-.12 2.526-.13 2.56A2136 2136 0 0 0 112 57a56.5 56.5 0 0 0 7-4h3l-1 5-1-2-2.25 2.5C115 61 115 61 111 61c-2.6-3.9-2.15-7.474-2-12l-3 2-2-3h-4c-1.591-3.183-1.397-6.535-1-10 1.375-2.5 1.375-2.5 3-4h2l-.875 1.688c-1.166 2.397-2.159 4.828-3.125 7.312l2.375.438C105 44 105 44 107 45z"/>
        <path fill="#831615" d="M200 198c1.96 3.462 2.054 5.913 1.938 9.89-.017 2.378-.017 2.378 1.062 5.61 1.072 4.1 1.508 8.217 1.75 12.438l.297 3.964c-.595 5.142-4.329 7.517-8.12 10.65-3.053 2.553-5.866 5.278-8.654 8.112l-1.463 1.475q-2.22 2.24-4.435 4.486c-11.6 11.76-11.6 11.76-17.732 16.95-1.625 1.41-3.141 2.886-4.643 4.425l-3-1 2.133-1.95q4.033-3.69 8.057-7.39 2.735-2.507 5.478-5.004c5.547-5.079 10.915-10.097 15.75-15.875 3.901-4.392 8.215-8.33 13.582-10.781l-.437-3.559c-1.275-10.87-1.815-21.5-1.563-32.441"/>
        <path fill="#F02212" d="m133 59 1.309 1.754q1.578 2.102 3.226 4.148C142.277 71.22 143.303 77.227 144 85c-4.493-1.658-8.612-3.85-12.812-6.125l-2.1-1.129A2531 2531 0 0 1 124 75v4l4-1-2 4-3-2a101 101 0 0 1-1-7l-1-2q2.065.648 4.125 1.313l2.32.738c2.974 1.105 5.74 2.492 8.555 3.949l-.656-2.922-.844-3.828-.844-3.797C133 63 133 63 133 59"/>
        <path fill="#CF0A0B" d="M203 185c2 3 2 3 2 7l3 2-7 7v-9c-.543 1.06-1.085 2.12-1.645 3.21q-1.083 2.084-2.167 4.165l-1.08 2.117-1.065 2.031-.968 1.873C193 207 193 207 190 209v-2l-2.062 1.25L185 210l-1.82 1.125c-1.692 1.02-3.434 1.953-5.18 2.875l-2-1 2.781-2.273C186.077 204.675 192.356 198.67 198 191q1.484-1.825 3-3.625z"/>
        <path fill="#F25E09" d="M156 135c1.875.688 1.875.688 4 2l1 2.563 1 2.437c2.02.688 2.02.688 4 1q.04 2.125.063 4.25l.035 2.39c-.094 2.267-.466 4.189-1.098 6.36h-2l-1-11c-2.954 4.266-2.954 4.266-5 9l-5-2v-2h2v-2l-4 1 2-7 4-1z"/>
        <path fill="#FDC70E" d="M49 152c2 1 2 1 3.25 4.313 1.259 3.165 1.72 3.667 4.75 5.687 3.962 2.642 4.538 4.532 6 9v3c-7.86-.487-7.86-.487-11.5-2.125-2.205-2.756-2.186-5.424-2.5-8.875l-1-2c.087-1.546.24-3.09.438-4.625l.308-2.477z"/>
        <path fill="#F75309" d="M149 106c2 1.375 2 1.375 4 4 .5 4.02.842 8.316-1 12-.04 2.333-.043 4.667 0 7l2 1 1-2h2l.188 2.375L158 133c2.476 1.375 2.476 1.375 5 2l1 7h-2a375 375 0 0 1-4-6l-2-1v6l-5-1c-.879-6.152-.879-6.152-1-8l1-1-3-1v-2h2l-.508-2.266-.617-2.984-.633-2.953c-.27-3.115.293-4.133 1.758-6.797-.311-3.682-.311-3.682-1-7"/>
        <path fill="#FC9710" d="M118 56h2l-.687 3.188c-.549 3.675-.549 3.675.562 6.5 3.096 3.369 6.832 4.854 11.125 6.312h2v-9h1c1.591 4.873 2.212 8.808 2 14-5.636-.884-9.966-3.382-15-6v19h-1V77l-4 2c-1.245-2.49-.973-3.78-.695-6.535l.27-2.701c.098-.933.198-1.866.3-2.826l.277-2.838c.717-6.969.717-6.969 1.848-8.1"/>
        <path fill="#B20D0E" d="M133 280h2c0 2 0 2-2.16 4.281L130 287l-2.684 2.719c-4.611 4.657-9.205 9.168-14.316 13.281a176 176 0 0 0-4 4c-3.249-1.052-4.012-2.02-5.746-5.047a209 209 0 0 1-1.692-3.703c-2.298-5.106-4.815-9.06-8.562-13.25l2-4c2 2 2 2 3.25 4.563 1.862 3.656 4.06 6.862 6.445 10.19 1.415 2.436 1.906 4.476 2.305 7.247 9.224-5.826 16.886-12.627 23.969-20.875z"/>
        <path fill="#EE3908" d="M70 106c1.019 3.056 1.012 4.504.695 7.64l-.27 2.747c-.098.945-.198 1.89-.3 2.863l-.277 2.816c-.502 4.999-1.093 9.967-1.848 14.934h-3c-2.762-2.762-2.579-5.207-3-9h2l-.312-3.187c-.046-6.344 2.76-12.115 5.312-17.813z"/>
        <path fill="#CF3C11" d="M51 148v4h2l1.313 3.438L56 159l3 1 1-3v4c-2.812.25-2.812.25-6 0-2.472-2.387-3.401-4.648-4-8-1.395 2.79-1.182 4.903-1 8l1.063 2.625c1.051 2.664.913 3.74-.063 6.375l2 1h-3l-1 4c-2.856-3.454-4.34-5.612-4.059-10.164q.275-2.235.621-4.461l.268-2.273C46.2 148 46.2 148 51 148"/>
        <path fill="#FC7C0D" d="M77 98c4.182 1.78 5.194 3.845 7 8h2c1.063 2.375 1.063 2.375 2 5l-1 2h-2l-1 5a244 244 0 0 1-3.437-2.75c-.639-.51-1.277-1.02-1.934-1.547-1.895-1.981-2.311-3-2.629-5.703a74 74 0 0 1 .438-5.25l.308-2.703z"/>
        <path fill="#0D0102" d="M92 76c-1.927 11.522-1.927 11.522-4 17h-4c-2.097-3.145-2.537-6.27-2.453-10.027.556-2.421 1.357-3.336 3.203-4.973C88 76 88 76 92 76"/>
        <path fill="#D0CFCE" d="M60 292c2.932 1.34 5.168 2.848 7.563 5l2.152 1.902a145 145 0 0 1 4.476 4.29c8.5 8.281 18.421 14.182 28.51 20.341C105 325 105 325 107.14 326.707c1.838 1.584 1.838 1.584 4.421.98L114 327h3c-4.196 3.957-4.196 3.957-7.312 4.125-2.558-1.07-4.178-2.184-6.344-3.875-3.372-2.57-6.826-4.86-10.434-7.08-7.951-4.907-14.794-10.307-21.469-16.834-2.207-2.342-2.207-2.342-4.441-3.336v-2l-1.812-.75c-2.474-1.414-3.622-2.9-5.188-5.25"/>
        <path fill="#ECA5A1" d="M214 166c1.002 3.007 1.074 4.932 1 8.063-.156 3.61-.156 3.61 1 6.937a67 67 0 0 1 .281 4.063l.114 2.414.21 5.046.114 2.415.092 2.214c.089 1.942.089 1.942 1.189 3.848a81 81 0 0 1 .125 4.938l.008 2.652C218 211 218 211 217 214a128 128 0 0 0-.316 5.543l-.127 3.252-.12 3.393-.13 3.427q-.16 4.192-.307 8.385h-1c-.196-3.979-.38-7.958-.562-11.937l-.17-3.444-.147-3.271-.143-3.031C214 214 214 214 215 213c.073-2.697.092-5.367.063-8.062l-.014-2.3q-.02-2.818-.049-5.638h-2c.095-.869.19-1.738.29-2.633.11-1.152.22-2.305.335-3.492l.352-3.445c.024-3.63-.812-6.026-1.977-9.43-.012-2.957-.012-2.957.313-5.812l.3-2.895C213 167 213 167 214 166"/>
        <path fill="#6F1313" d="M17 217h1l.227 2.527c1.343 11.496 5.533 17.652 13.765 25.493 2.008 1.98 3.778 4.056 5.57 6.23 4.061 4.706 8.439 6.967 14.188 9.25 3.238 1.495 4.478 2.477 6.25 5.5l-2-.812c-3.105-1.273-3.105-1.273-6.812-2.375C44.185 260.935 40.78 257.686 37 254l-2.035-1.953C30.398 247.577 26.03 242.96 22 238l-1.547-1.824C16.002 230.21 16.506 224.196 17 217"/>
        <path fill="#F53209" d="M109 45h1l-.035 2.555-.028 3.32-.035 3.305c-.1 2.772-.1 2.772 1.098 4.82-.016 2.059-.016 2.059-.25 4.438l-.203 2.37C109.91 68.36 108.99 69.337 107 71l.07-1.863.055-2.45.07-2.425c-.037-2.546-.037-2.546-2.195-5.262v-3h-3l-1-8h4l2 2z"/>
        <path fill="#F44509" d="M69 140c2.526 2.363 3.888 3.665 5 7h-2l-.437 1.813c-.45 1.749-.992 3.474-1.563 5.187h-2v2l-9-2-1 2c-1.203-2.405-1.1-3.95-1.062-6.625l.027-2.477L57 145h1l1 7h5l.25-3.187c.803-4.083 1.943-5.825 4.75-8.813"/>
        <path fill="#FA540A" d="M75 112h1l.875 2.938c.767 3.169.767 3.169 3.125 4.062v6h-2v-2h-2v10c-5.75 1.125-5.75 1.125-8 0l1-9h3c1.803-3.967 2.492-7.682 3-12"/>
        <path fill="#FD8509" d="M102 56h3c1.747 5.241 1.328 10.688 0 16h4l2 9h-4c-1.625-1.75-1.625-1.75-3-4l-1.078-1.594c-1.41-3.678-1.131-7.256-1.047-11.156l.027-2.402c.024-1.95.06-3.899.098-5.848"/>
        <path fill="#D20B0B" d="M130 242h2c-1.066 7.46-4.103 11.363-10 16-2.363 1.404-4.342 2.147-7 3l-2.625.875c-3.315.174-4.822-.818-7.375-2.875-.64-2.113-.64-2.113-1-4 .69.095 1.38.19 2.09.29 6.533.77 11.574.476 17.91-1.29v-5h5z"/>
        <path fill="#DD0D0F" d="M213 243c0 3.515-.98 4.663-3.238 7.246-4.618 4.597-9.794 9.053-15.762 11.754.245-4.167.593-6.477 3.188-9.812 2.93-2.28 5.323-3.05 8.812-4.188a100 100 0 0 0 3-4c2.188-.75 2.188-.75 4-1"/>
        <path fill="#F2D1CE" d="M4 208h1l.012 2.443c.034 3.687.104 7.371.176 11.057l.017 3.844C5.384 232.98 6.057 238.078 11 244l1.844 2.54q2.57 3.235 5.156 6.46l2.375 3.125c2.943 3.223 6.122 5.692 9.637 8.262C32 266 32 266 34 269c-12.571-5.738-23.885-18.77-30-31a160 160 0 0 1-.098-6.758l.005-2.01c.005-2.118.018-4.238.03-6.357q.008-2.154.014-4.309Q3.968 213.283 4 208"/>
        <path fill="#F9F0F1" d="M110 0h3c-.302 4.497-.68 8.593-2.5 12.75-1.968 4.698-1.998 9.453-2.191 14.492C108 30 108 30 106 32c-.83-2.9-1.135-5.486-1.125-8.5l-.008-2.281C105 19.023 105.46 17.124 106 15l-.187-2.687C106.074 7.685 107.956 4.107 110 0"/>
        <path fill="#FCE314" d="M154 174c-.32 2.876-1.197 4.267-2.937 6.625-4.108 3.185-7.993 3.715-13.063 4.375l2 2-5-1-1-3c16.107-9 16.107-9 20-9"/>
        <path fill="#FA6B08" d="M101 71c2.975 2.55 4.354 5.484 6 9l1 2-2.937 1.188c-3.285 1.488-3.285 1.488-3.938 4.5L101 90c-2-2-2-2-2.195-3.945L99 80h-2c-.25-2.812-.25-2.812 0-6 2-1.875 2-1.875 4-3"/>
        <path fill="#D38D88" d="M34 269c2.966 1.377 5.391 3.044 8 5a88 88 0 0 0 4 2v2l1.75.875L54 282v2l1.875.625c2.972 1.923 3.255 4.04 4.125 7.375-3.74-1.581-6.296-3.932-9.25-6.687-3.962-3.672-7.965-7.26-12.094-10.743-1.806-1.712-3.217-3.544-4.656-5.57"/>
        <path fill="#FDF234" d="M108 135h2l1 6h2v2h2v2l-2 1c-.656 2.527-.656 2.527-1 5-2-1-2-1-3-4l-2-1v5c-3.875-4.75-3.875-4.75-5-7q.421-3.511 1-7l3 2v4h3z"/>
        <path fill="#FCB109" d="M143 139h1c1.517 9.41 1.517 9.41-1 14l4 1-2 4c-2.929-.628-5.361-1.586-8-3 .44-2.64.895-4.796 2.125-7.187L140 146l-1-2 2-1c1.134-2.017 1.134-2.017 2-4"/>
        <path fill="#F2C0BC" d="M111 36h2l-1 21c3.917-1.855 3.917-1.855 7-4h3l-1 5-1-2-2.25 2.5C115 61 115 61 111 61c-2.38-3.721-2.267-7.033-2.25-11.375l-.016-3.898c.257-3.594.963-6.386 2.266-9.727"/>
        <path fill="#FBD20B" d="M70 175c4.998-.36 7.98.656 12.375 3l3.21 1.688L88 181v2c-10.501 1.07-10.501 1.07-14.133-1.523C70 176.899 70 176.899 70 175"/>
        <path fill="#F9980B" d="M86 116c2 0 2 0 3.688 1.5 1.97 3.753 1.067 6.38.312 10.5h-2v11h-2l-2-20h2z"/>
        <path fill="#F28420" d="M99 61h1c.054 1.791.093 3.583.125 5.375l.07 3.023C100 72 100 72 98 74l-.312 2L97 78c-2.562 1.25-2.562 1.25-5 2v7h-1c-.125-7.625-.125-7.625 1-11l-4-1c5.75-4 5.75-4 8-4 1.884-3.265 2.493-6.281 3-10"/>
        <path fill="#CA0E0E" d="M74 84c2 1 2 1 3 2 .04 1.666.043 3.334 0 5l-2-3c-.473.315-.946.63-1.434.953-13.342 8.635-13.342 8.635-20.129 7.797L50 96v-1l3.25-.625C60.701 92.525 68.006 88.781 74 84"/>
        <path fill="#DF450E" d="M149 106c2 1.375 2 1.375 4 4 .5 4.02.842 8.316-1 12-.04 2.333-.043 4.667 0 7l2 1 1-2h2l-1 4c-2.763-.523-5.326-1.109-8-2v-2h2l-.508-2.266-.617-2.984-.633-2.953c-.27-3.115.293-4.133 1.758-6.797-.311-3.682-.311-3.682-1-7"/>
        <path fill="#FDD20D" d="M163 159h1c.082 1.582.14 3.166.188 4.75l.105 2.672c-.352 3.093-1.081 4.407-3.293 6.578-3.687.25-3.687.25-7 0 1.346-3.809 3.054-6.654 5.563-9.812l1.878-2.395z"/>
        <path fill="#CD8785" d="m178 272 4 2-2.71 2.09a3003 3003 0 0 0-5.586 4.343c-4.805 3.776-9.304 7.752-13.716 11.985C158 294 158 294 155 294q3.776-3.818 7.563-7.625l2.134-2.16c4.275-4.294 8.648-8.337 13.303-12.215"/>
        <path fill="#DF0B0A" d="m116 249 8 1c-2.493 3.74-3.68 3.98-8 5-7.807 1.055-14.689-1.469-22-4v-1h10v2h4v2h5v-3h3z"/>
        <path fill="#F96207" d="M76 151h1l1 10-4 2-2-3-1 2h-4l-1-2-3-1 1-3 9 1 1-3h2z"/>
        <path fill="#FCC80E" d="M94 114h2l1 7h-2l.438 1.758c1.07 4.509 1.801 8.573 1.562 13.242h-7l2.063-2.25L94 131a58 58 0 0 0-1-4c-.092-2.06-.13-4.125-.125-6.187l-.008-3.231C93 115 93 115 94 114"/>
        <path fill="#FAC910" d="M123 103h2a367 367 0 0 1 1.063 4.313l.597 2.425C127 112 127 112 126 115v3l3 1-1.062 2c-1.267 4.051-.644 6.834.062 11l-3-1v-7l-3-1h3l-.437-2.344c-1.067-5.984-1.797-11.58-1.563-17.656"/>
        <path fill="#751110" d="M43 262c3.107 1.353 4.875 2.752 7 5.375 2.213 2.656 4.483 5.121 7.016 7.469C63.252 280.658 67.823 285.133 69 294c-2.375-1.562-2.375-1.562-5-4l-.562-3.04c-1.527-5.93-6.766-9.721-11.063-13.772q-2.65-2.535-5.29-5.083l-2.373-2.245C43 264 43 264 43 262"/>
        <path fill="#FBCB11" d="m63 159 4 1v2h4l1-3 2 4h-6c.275 4.032.535 5.569 3.563 8.375L74 173c-3.77-.263-5.774-.838-8.875-3.062-2.879-3.98-2.533-6.122-2.125-10.938"/>
        <path fill="#CF0F0C" d="M203 185c2 3 2 3 2 7l3 2-7 7v-9l-4 8-2-4c1.047-3.104 2.974-5.318 5.125-7.75l1.633-1.86z"/>
        <path fill="#F77210" d="m121 72 2 1v7l3 1c.75 2.75.75 2.75 1 6-1.812 2.375-1.812 2.375-4 4h-2z"/>
        <path fill="#F9E8E6" d="m118 63 1.438 2.25c3.34 3.585 6.97 5.163 11.562 6.75h2v-9h1c1.591 4.873 2.212 8.808 2 14-6.668-1.07-13.893-4.465-18-10z"/>
        <path fill="#AC1B18" d="m156 276 2 1c-9.378 9.551-9.378 9.551-13.937 13.438-5.32 4.543-10.161 9.58-15.063 14.562 0-3 0-3 1.574-4.867l2.113-2.008 2.075-1.992L137 294c.763-.77 1.526-1.54 2.313-2.332 3.262-3.24 6.623-6.361 10-9.48l1.955-1.811z"/>
        <path fill="#86090A" d="M10 189c4 4.75 4 4.75 4 7h4l1-5h1c1.591 4.873 2.212 8.808 2 14l-3 1-.25-2.875L18 200c-1.85-1.05-1.85-1.05-4-2-4-5.222-4-5.222-4-9"/>
        <path fill="#FBBB0F" d="M134 136h1l.875 2.75c.89 2.572 1.84 4.863 3.125 7.25l-5 4-2-1v-1h-5l1-4h4z"/>
        <path fill="#E43E09" d="M90 82h1q.292 2.874.563 5.75l.316 3.234C91.987 93.67 91.95 95.51 91 98c-2.062 1.75-2.062 1.75-4 3-2.523-1.974-2.993-2.967-3.687-6.187L83 92l4 1c1.273-3.648 2.328-7.194 3-11"/>
        <path fill="#FCF127" d="M105 132h4l1 3h-2l1 8h-3l-2-5-1 6-1.25-2-1.75-2h-4v-2l9-2z"/>
        <path fill="#FDFBDD" d="m97 139 4 1c2.071 3.505 3.548 7.202 5 11-4.75.125-4.75.125-7-1l-3 1v-4h3z"/>
        <path fill="#F52709" d="M158 165c-1.125 2.972-2.223 5.334-4 8l3.313-.5C161 172 161 172 164 172l-1 2h-8l-1 2v-2l-5 2-1-3c1.328-2.043 1.328-2.043 3.25-4.187l1.89-2.168C155 165 155 165 158 165"/>
        <path fill="#8D120E" d="M200 198c1.96 3.46 2.054 5.91 1.938 9.887.079 2.681.884 5.052 1.617 7.617 1.019 5.713.58 11.708.445 17.496h-1c-2.32-11.807-3.411-22.97-3-35"/>
        <path fill="#FBAF09" d="M73 139c3.34.596 5.505 1.683 8 4v3h-2l1 2.313C81 151 81 151 81 154c-3-1-3-1-4.168-2.848l-1.02-2.214-1.042-2.223L74 145h2z"/>
        <path fill="#EE3634" d="m106 27 1 2c-.937 2.625-.937 2.625-2 5h-3c-1.784 3.062-2.229 5.22-2.125 8.75l.055 2.422L100 47l-4 2c-.855-6.517-.04-9.581 3.875-14.937 1.954-2.49 3.888-4.826 6.125-7.063"/>
        <path fill="#E1360C" d="M140 102c4.771 3.579 7.29 6.686 10 12h-2v-2c-2.51 1.255-2.871 2.5-4 5l-.621-1.715-.816-2.222-.81-2.215c-.607-1.831-.607-1.831-1.753-2.848-.04-2-.043-4 0-6"/>
        <path fill="#F3CDCA" d="m211 138 5 2 .184 3.543.254 4.644.119 2.33c.18 3.221.357 6.15 1.166 9.284.277 2.199.277 2.199-1.206 4.336L215 166l-.152-2.28c-.231-3.386-.477-6.772-.723-10.157l-.238-3.588-.254-3.409-.222-3.158L213 141l-2-1z"/>
        <path fill="#FAE349" d="M97 109h2v21h-3l-1-9h2l-.5-1.562c-.654-3.19-.622-6.192-.5-9.438z"/>
        <path fill="#BF0F0F" d="M11 211h3l-1 27c-2.266-3.399-2.237-4.563-2.195-8.543l.02-3.252.05-3.393.027-3.427q.036-4.192.098-8.385"/>
        <path fill="#C80B10" d="m133 272-1.937 1.875c-4.21 4.197-8.11 8.69-12.063 13.125l-1-3c1.65-2.922 3.856-5.426 6-8l2.063-2.5c2.447-1.895 3.916-1.836 6.937-1.5"/>
        <path fill="#FDAE0E" d="M146 131h4c.982 4.053 1.082 7.839 1 12h-3l-1-6h-2a100 100 0 0 1 0-5z"/>
        <path fill="#F14A0C" d="M75 112h1l.875 2.938c.767 3.169.767 3.169 3.125 4.062v6h-2v-2h-2v2l-7 1 1-2h2c1.803-3.967 2.492-7.682 3-12"/>
        <path fill="#F93F09" d="M116 58h2l-2 19-3-2c-1.11-5.965.326-11.652 3-17"/>
        <path fill="#FC8E09" d="M151 140c1.43 2.354 2.087 3.48 1.625 6.25L152 148h2c0 2 0 2-2.125 4.188C149 154 149 154 145.688 153.75L143 153l1-4h2l3-2v-4h2z"/>
        <path fill="#FCF4EF" d="m97 54 .438 1.875c.494 2.158.494 2.158 1.562 4.125.5 4.414.507 6.32-2.187 9.938C93.8 72.147 92.627 72.518 89 72l1-5 1 3h3c1.402-2.617 2.605-5.037 3-8l-2-2c.556-4.556.556-4.556 2-6"/>
        <path fill="#FCF338" d="m120 153 3 1v5h2c-.348 3.132-.813 4.768-2.812 7.25-2.18 1.744-3.413 2.565-6.188 2.75l-2-2 3-1.375c3.212-2.246 3.212-2.246 3.398-5.117A79 79 0 0 0 120 153"/>
        <path fill="#B4150D" d="M121 71c5.382 1.548 9.937 2.937 14 7v2c-4.053-1.225-7.444-2.699-11-5v4l4-1-2 4-3-2a101 101 0 0 1-1-7z"/>
        <path fill="#F7680C" d="M76 111c5.49 3.738 5.49 3.738 6.797 6.973.39 2.09.39 2.09.203 6.027-2.437 2.5-2.437 2.5-5 4v-3h2v-6l-4-2z"/>
        <path fill="#A7220E" d="M70 106c1.223 3.67.88 6.34.563 10.188l-.31 3.855L70 123l-2-4h-2l-1 9h-1c-.762-7.773 1.846-13.959 5-21z"/>
        <path fill="#FB8609" d="m91 97 1 2 3-1v8c-3-1-3-1-5-4v11l-2-1q-.118-3.187-.187-6.375l-.106-3.586L88 99z"/>
        <path fill="#EA2C22" d="M140 60c3.912 3.353 6.236 7.205 8 12 .25 3.5.25 3.5 0 6l-4 1-.113-2.45-.2-3.237-.175-3.2c-.552-3.356-1.67-5.294-3.512-8.113z"/>
        <path fill="#F85014" d="M102 47c3.295 1.098 4.455 1.91 6 5a140 140 0 0 1-2 7l-1-3h-3c-.879-6.152-.879-6.152-1-8z"/>
        <path fill="#F14C0C" d="m148 79 1.25 1.375c1.819 1.689 3.515 2.582 5.75 3.625 1 1 1 1 1.063 3.563L156 90c-3.364-.6-5.567-1.567-8-4-.812-3.125-.812-3.125-1-6z"/>
        <path fill="#93070B" d="m85 220 7 1 1 4h-7l-1 2-5-5 5 1z"/>
        <path fill="#F72B09" d="m64 168 2.688 1.938c3.004 1.87 4.863 2.656 8.312 3.062l1-3v4l-2.375.813c-2.906 1.035-2.906 1.035-4.625 4.187l-3-2 1-3-3-2z"/>
        <path fill="#AF1411" d="M45 194h2l2 3 3-2c2.706 3.833 3.326 6.325 3 11h-2l-1.312-2.937c-1.39-3.34-1.39-3.34-4.688-4.063-1.187-2.562-1.187-2.562-2-5"/>
        <path fill="#90090C" d="M101 241v3l-7 1-1 3c-3-5.75-3-5.75-3-8 4.25-1.417 6.719-.193 11 1"/>
        <path fill="#FBDC0C" d="m87 139 7 3-3 1v2l4 1v2h-4l-2 2c-3.125-.375-3.125-.375-6-1l4-2z"/>
        <path fill="#FCBA07" d="m93 127 2 4-4 3zm-5 5 1 2 2 1c3 4.5 3 4.5 3 7-4.875-.875-4.875-.875-6-2-.141-2.67-.042-5.324 0-8"/>
        <path fill="#AC2010" d="M66 144c1.47 2.94 1 5.745 1 9l1 3-9-2-1 2c-1.203-2.405-1.1-3.95-1.062-6.625l.027-2.477L57 145h1l1 7h5l.438-3.437C65 145 65 145 66 144"/>
        <path fill="#F1CCCF" d="M16 86h4v4h-2l-.375 3.188C17.089 96.46 16.361 99.005 15 102h-1c-.207-5.789.408-10.43 2-16"/>
        <path fill="#E50B0C" d="M86 70h2l-2 6 2 1-6 4-2-4a418 418 0 0 1 2.875-3.5l1.617-1.969z"/>
        <path fill="#971A13" d="M73 283c4.22 1.558 6.531 4.719 9.25 8.125l1.39 1.707A717 717 0 0 1 87 297l-3 2-1.625-2.562c-2.11-3.19-4.538-5.997-7.105-8.825C74 286 74 286 73 283"/>
        <path fill="#EA807B" d="M34 269c2.966 1.377 5.391 3.044 8 5a88 88 0 0 0 4 2v2l1.875.938L52 281v2l-4-2-2.75-1.125c-4.464-2.576-7.848-6.024-11.25-9.875z"/>
        <path fill="#C50D10" d="M49 176h3c1 3 1 3 .938 5.75.073 3.796.909 6.646 2.062 10.25-2.937-.75-2.937-.75-6-2-.875-2.125-.875-2.125-1-4l4 1-2-2a196 196 0 0 1 0-7z"/>
        <path fill="#D63F0C" d="M130 85c4.833 4.05 6.383 7.967 8 14-2.375-.187-2.375-.187-5-1-1.976-3.388-2.101-6.154-2-10z"/>
        <path fill="#EF3F11" d="M49 163c2 3 2 3 1.625 5.188L50 170l2 1h-3l-1 4c-2.097-2.36-2.97-3.546-3.187-6.75L45 166h2v-2z"/>
        <path fill="#CE0708" d="m14 241 8 10-4 2c-2.531-2.201-3.385-3.72-4-7l-1-3z"/>
        <path fill="#F8E9E9" d="M69 85h2c-1.334 4-2.915 4.323-6.625 6.188C59.576 93.507 56.273 94.719 51 94c4.308-2.248 8.815-3.975 13.32-5.781C67.082 87.152 67.082 87.152 69 85"/>
        <path fill="#FBF2ED" d="m122 53-1 5-1-2-2.25 2.5C115 61 115 61 111 61c.25-1.875.25-1.875 1-4 1.875-1.125 1.875-1.125 4-2 3-2 3-2 6-2"/>
        <path fill="#D9D7D6" d="M60 292c3.085 1.392 5.37 3.044 7.875 5.313A330 330 0 0 0 78 306l-1 3-1.68-1.715-2.195-2.223-2.18-2.214C69.13 300.943 69.13 300.943 67 300v-2l-1.812-.75c-2.474-1.414-3.622-2.9-5.188-5.25"/>
        <path fill="#BD191A" d="M67 248c3.119 1.406 5.454 3.098 8 5.375l2.094 1.871A133 133 0 0 1 83 261l-2 3c-4.766-5.254-9.515-10.502-14-16"/>
        <path fill="#BE080C" d="M24 193c3.895 1.587 6.529 3.584 9 7-.175 3.168-.976 6.007-2 9h-1l-.187-3.625C29.25 200.575 27.23 198.48 24 195z"/>
        <path fill="#FBF56E" d="M103 137c3.356 2.237 3.193 2.425 4 6l2 1v2h-2v5c-3.875-4.75-3.875-4.75-5-7q.421-3.511 1-7"/>
        <path fill="#FAF0ED" d="M149 73c1.46 2.647 2 3.894 2 7l7-1 1 4-2-1-1 2-5-2-1 2c-1.203-2.405-1.1-3.95-1.062-6.625l.027-2.477z"/>
        <path fill="#F9DA0E" d="M97 95h1l.148 1.898.227 2.477c.07.812.14 1.624.21 2.46.244 2.368.244 2.368 2.415 4.165-.023 2.82-.023 2.82-.375 6.125l-.336 3.32L100 118h-1v-9h-2z"/>
        <path fill="#FCAA0E" d="M92 83h1c1.422 4.445 2.55 8.277 2 13l-3 2a24.57 24.57 0 0 1 0-15"/>
        <path fill="#F54B0C" d="M77 92c3.867 3.222 4.88 6.15 6 11l-6-5v10h-1a995 995 0 0 1-.062-5.75l-.036-3.234c.083-2.55.352-4.595 1.098-7.016"/>
        <path fill="#F3C2B7" d="M157 81h1l.043 1.863c.146 2.47.354 4.735.957 7.137 2.373 2.009 2.373 2.009 5 3l1 2-9-3c-1.25-7.625-1.25-7.625 1-11"/>
        <path fill="#8D1515" d="M133 280h2c0 2 0 2-2.137 4.262L130 287q-1.45 1.443-2.895 2.895L119 298l-2-2 1.977-1.723c4.081-3.606 8.054-7.129 11.523-11.34z"/>
        <path fill="#FDF653" d="M90 156c4.33-.167 7.228-.156 11 2h3c1 1 1 1 1.063 3.563L105 164l-1.937-1.875c-3.455-2.397-6.09-2.97-10.172-3.633L91 158z"/>
        <path fill="#FEF31D" d="m115 144 1 2h2l1 4-6 2c-1-1-1-1-1.25-3.437L112 146z"/>
        <path fill="#FB980F" d="M76 123h2l1 11h-3l-1 3h-2l1-4h2z"/>
        <path fill="#FA8807" d="m87 117 4 3-1 8h-2l-1 2z"/>
        <path fill="#F0BEC0" d="M108 15c1.454 2.909.926 5.279.688 8.5-.08 1.165-.158 2.33-.239 3.531C108 30 108 30 106 32c-1.222-4.335-1.493-8.522-1-13 1.5-2.562 1.5-2.562 3-4"/>
        <path fill="#C70C0D" d="m55 192 4 1-.625 2.25c-.427 3.128.128 4.076 1.625 6.75a575 575 0 0 1-3.875-2.812l-2.18-1.583C52 196 52 196 50 193h5z"/>
        <path fill="#C5220E" d="M165 156h2v6l5-1 2 4-2 2v-4h-4v2h-4z"/>
        <path fill="#F6C9BB" d="M142 65c2 2 2 2 2.195 4.82l-.07 3.305-.055 3.32L144 79h-2l-.375-3.25c-.521-3.129-1.026-5.085-2.625-7.75l3-1z"/>
        <path fill="#F8954B" d="M118 56h2l-.324 2.266-.364 2.984-.386 2.953C119.014 67.528 119.93 68.5 122 71c-.312 2.75-.312 2.75-1 5h-1v-5l-3-1q-.04-3.22-.062-6.437l-.036-3.622C117 57 117 57 118 56"/>
        <path fill="#D0120F" d="M6 186h5v2l2 1-1 3h-1l-1 2-4-2z"/>
        <path fill="#FBC313" d="m141.313 180.313 1.688.688-1 2 4 1-8 1 2 2-5-1-1-3c4.43-3.077 4.43-3.077 7.312-2.688"/>
        <path fill="#FB8909" d="m63 156 9 1c0 3 0 3-1 5h-4l-1-2-3-1z"/>
        <path fill="#FA930A" d="M77 109h3l2 3 2-3c1.534 3.069.55 5.7 0 9a271 271 0 0 1-3.5-2.812l-1.969-1.583C77 112 77 112 77 109"/>
        <path fill="#F9E8E9" d="M13 99h1c.734 6.755-1.724 11.185-5 17-1.685-4.077-.17-6.83 1.438-10.75l1.433-3.547z"/>
        <path fill="#BA0F0F" d="M130 242h2c-.982 6.33-2.449 9.063-7.54 12.969L123 256l-2-2h3v-5h5z"/>
        <path fill="#BE070E" d="M94 250h10v2h4v2h8v1c-8.002.542-14.466-1.392-22-4z"/>
        <path fill="#CB080B" d="M156 242c.878 3.097.994 4.906 0 8l4-1c-1.074 2.915-1.778 4.778-4 7l-3-1 1-1a164 164 0 0 0 1.063-6.062l.535-3.348z"/>
        <path fill="#FCB006" d="m64 163 3 1 .875 2.313c1.39 3.32 3.23 4.63 6.125 6.687-3.448-.313-5.56-.675-8.375-2.75-1.921-2.66-1.982-4.04-1.625-7.25"/>
        <path fill="#FBA910" d="M49 152c2.61 1.305 2.68 2.358 3.625 5.063.26.733.52 1.466.79 2.222.192.566.386 1.132.585 1.715h-4l-1 2c-1.26-2.52-.919-3.854-.562-6.625l.308-2.477z"/>
        <path fill="#CB1112" d="m115 297 3 1c-5.966 7.667-5.966 7.667-11 9l-1-3h4l.813-1.812c1.172-2.16 2.38-3.546 4.187-5.188"/>
        <path fill="#ED1B1C" d="M18 90h2v9l-2-1-2 8c-1.117-1.61-1.117-1.61-2-4 .68-3.016.68-3.016 1.875-6.25l1.18-3.266z"/>
        <path fill="#FC8218" d="m111 61 3 1-1 11h-2c-1.286-8.571-1.286-8.571 0-12"/>
        <path fill="#F73B0C" d="m153 177 2 1v2h2c-.812 1.938-.812 1.938-2 4l-3 1-2-5z"/>
        <path fill="#BC3116" d="M62 128c2.438 1.125 2.438 1.125 5 3 .813 3.188.813 3.188 1 6h-3c-2.762-2.762-2.579-5.207-3-9"/>
        <path fill="#B90F11" d="m8 116 2 2 4-1v16h-1l-1-12-4-1z"/>
        <path fill="#FBDA12" d="m110 93 3 1-1 13c-3-4-3-4-3.074-6.578l.386-2.672.364-2.703z"/>
        <path fill="#F9F0EF" d="m163 92 18 6c-3.624 1.208-5.318.701-9-.187l-3.187-.731c-3.117-1.2-4.128-2.256-5.813-5.082"/>
        <path fill="#180303" d="M116.164 295.395 118 296a791 791 0 0 1-4.375 3.5l-2.461 1.97C109 303 109 303 107 303c1.547-3.938 4.49-8.457 9.164-7.605"/>
        <path fill="#FCCA0F" d="M156 161h2c-.125 1.75-.125 1.75-1 4-3.062 2.25-3.062 2.25-6 4l-1-5 3-1 2 1z"/>
        <path fill="#BD2A0E" d="M46 152h1l2 12h-2v2h-2l-1 3z"/>
        <path fill="#640D0D" d="M29 128v2q-2.904 1.007-5.812 2l-3.27 1.125C17 134 17 134 14 134c2.137-2.377 3.938-3.6 6.938-4.687l2.027-.762C25 128 25 128 29 128"/>
        <path fill="#EE6663" d="m200 254 4 1c-6.286 5.429-6.286 5.429-10 7l1-6 5 1z"/>
        <path fill="#96100D" d="m202 186 1 3a150 150 0 0 1-4 6c-.716 1.646-1.403 3.307-2 5-1.125-1.75-1.125-1.75-2-4 1.175-3.916 4.374-6.959 7-10"/>
        <path fill="#FCE508" d="m149 167 2 1c-.573 2.867-.861 3.861-3 6-2.625.125-2.625.125-5 0 3.75-5.875 3.75-5.875 6-7"/>
        <path fill="#FB930B" d="M139 123h2v15h-1l-.375-2.25c-.58-2.551-1.362-4.477-2.625-6.75h2z"/>
        <path fill="#FCF6F8" d="m126 43 4 1 1 6-4 2z"/>
        <path fill="#EDBBB9" d="M174 98c6.906.172 10.675 1.581 16 6l-2 1a198 198 0 0 1-6-3c-2.647-1.062-5.317-2.029-8-3z"/>
        <path fill="#F0B8B5" d="M75 72c2.403 2.403 2.32 3.139 2.375 6.438-.082 4.24-.082 4.24-2.25 6.624C73 86 73 86 71 86c1.875-3.875 1.875-3.875 3-5a86 86 0 0 0 .563-4.562l.253-2.504z"/>
        <path fill="#F7D6D2" d="m104 34-.875 1.563c-1.413 3.06-2.25 6.186-3.125 9.437h4v2l-4 1c-1.591-3.183-1.397-6.535-1-10 2.2-4 2.2-4 5-4"/>
        <path fill="#FBC10D" d="M163 159h1v10h-1l-1-5-1.312 2.438C159 169 159 169 156 170c1.761-4.003 4.261-7.603 7-11"/>
        <path fill="#FCF9A1" d="M120 151v3l-5 1v-2l-4 1v-3c5.625-1.125 5.625-1.125 9 0"/>
        <path fill="#EB4B49" d="M133 59c2.765 3.457 4.85 7.143 7 11h-5c-1.193-3.877-2-6.916-2-11"/>
        <path fill="#9C1718" d="m156 276 2 1-10 10-3-1z"/>
        <path fill="#5F1713" d="M43 262c3.388 1.436 5.319 3.205 7.688 6l1.824 2.125C54 272 54 272 55 274c-3.399-1.47-5.65-3.38-8.25-6l-2.14-2.125C43 264 43 264 43 262"/>
        <path fill="#CA0A0A" d="M207 242h2c-.6 3.356-1.846 5.378-4 8l-4-1a418 418 0 0 1 2.875-3.5l1.617-1.969z"/>
        <path fill="#F6E5E2" d="M215 190h1l.184 1.898.254 2.477c.08.812.162 1.624.246 2.46.207 2.208.207 2.208 1.316 4.165.04 2 .043 4 0 6h-1c-1.316-3.62-2-6.096-2-10h-2z"/>
        <path fill="#CC0B0E" d="m204 133 1 2a261 261 0 0 1-3 5 125 125 0 0 0-2 6h-1c-.615-7.262-.615-7.262 2.5-11z"/>
        <path fill="#FBC810" d="M117 115h1v5h2v2h-3l-1 3-2-2c.395-2.963 1.598-5.383 3-8"/>
        <path fill="#D33007" d="M90 82h1c.222 1.936.427 3.874.625 5.813l.352 3.269C92 94 92 94 90 97c-2.726-4.543-1.633-8.11-.508-12.988z"/>
        <path fill="#CB0F11" d="m104 255 10 2v1l-5 1v2c-1.937-.75-1.937-.75-4-2z"/>
        <path fill="#FACA12" d="M128 144c3.27.564 4.826 1.5 7 4l-1 2-2-1v-1h-5z"/>
        <path fill="#F6E4DC" d="m118 63 1.625 2.313c2.585 2.925 4.911 3.993 8.375 5.687l1 3c-4.962-1.27-7.763-3.002-11-7z"/>
        <path fill="#AF1012" d="m105 314 10 1-3 4c-3.653-1.25-4.78-1.671-7-5"/>
        <path fill="#EE827F" d="M213 243c0 4.39-2.128 5.77-5 9l-2-1 2-2c.648-2.57.648-2.57 1-5z"/>
        <path fill="#BE0B0D" d="M64 235h1l1 10c-4-2-4-2-4.75-4.125L61 239h3z"/>
        <path fill="#F9230A" d="M88 181c2 3 2 3 1.625 5.188L89 188h-2v-3l-9-1v-1h10z"/>
        <path fill="#1C0307" d="M56 153c1.5 1.25 1.5 1.25 3 3v4c-1.937-.312-1.937-.312-4-1l-1-3z"/>
        <path fill="#FC8507" d="M81 138h4l1 8h-3v-2l-3-1 2-1 2 1z"/>
        <path fill="#FBF145" d="m105 136-2 8-1.25-2-1.75-2h-4v-2c5.625-2 5.625-2 9-2"/>
        <path fill="#F24A10" d="m135 96 1 3c2 1.209 2 1.209 4 2v7h-2l-1-8h-2z"/>
        <path fill="#1C0607" d="m58 96 1 3c-1.937 2.688-1.937 2.688-4 5v-2h-3c1.245-3.736 2.634-4.188 6-6"/>
        <path fill="#F82405" d="m145 71 3 1v6l-4 1z"/>
        <path fill="#F0BBB8" d="m89 67 1 2-1 3 4 1c-4.75 3-4.75 3-7 3 .75-6.75.75-6.75 3-9"/>
        <path fill="#FAF1F3" d="m74 69 4 1v5l-2-1-1 6h-1z"/>
        <path fill="#F3C7C3" d="M95 42h1l.313 3.25C97 49 97.8 50.101 100 53c-.312 2.25-.312 2.25-1 4l-.875-1.875C97.063 52.867 97.063 52.867 95 51c-.195-2.164-.195-2.164-.125-4.625l.055-2.477z"/>
        <path fill="#F2221F" d="M209 246c-.6 3.356-1.846 5.378-4 8l-3-1c1.15-3.452 2.984-7 7-7"/>
        <path fill="#FC9207" d="m161 143 2 4h-2l-1 6-3 1c.607-4.128 2.038-7.332 4-11"/>
        <path fill="#FDF031" d="M97 141c1.746 2.62 2.387 4.038 3 7l-4-1v2l-2-1c.75-4.75.75-4.75 3-7"/>
        <path fill="#C8370C" d="m157 133 6 2 1 7h-2c-2.172-2.962-3.836-5.507-5-9"/>
        <path fill="#FAC30D" d="m101 91 2 1v4l2 1h-2v6l-3-4h2l-1.062-2.875C100 93 100 93 101 91"/>
        <path fill="#DB1F21" d="m61 92 1 3c-4.462 1.806-7.31 2.117-12 1v-1l5.957-1.465c1.7-.445 3.376-.98 5.043-1.535"/>
        <path fill="#BA3112" d="M145 86c2 4 2 4 3 7-.937 2.688-.937 2.688-2 5h-2z"/>
        <path fill="#FD700B" d="M109 68c2 2 2 2 2 5h2v2h-2l1 3h-2q-.543-1.935-1.062-3.875l-.598-2.18C108 70 108 70 109 68"/>
        <path fill="#C13E3D" d="m173 277 1 3c-2.312 2.063-2.312 2.063-5 4l-3-1z"/>
        <path fill="#671011" d="M45 194h2l2 3 3-2 2 4h-7z"/>
        <path fill="#F0490B" d="M127 79c1.46 2.647 2 3.894 2 7l-1 3c-2.062.688-2.062.688-4 1v-2l2-1c.465-1.895.465-1.895.625-4.062z"/>
        <path fill="#6E0D0C" d="M52.563 260.625c2.624 1.48 3.84 2.852 5.438 5.375l-2.063-.875c-3.266-1.251-6.566-2.2-9.937-3.125 2.544-1.697 3.53-2.114 6.562-1.375"/>
        <path fill="#FA2F09" d="M135 184c-3.423 3.15-6.443 3.562-11 4 2.827-4.241 6.085-5.638 11-4"/>
        <path fill="#F8C40E" d="m154 174-1 4h-8c2.566-2.566 5.315-4 9-4"/>
        <path fill="#FCF57D" d="m123 161 1 3c-4.293 4.753-4.293 4.753-8 5l-2-2 3.375-1.312c3.8-1.387 3.8-1.387 5.625-4.688"/>
        <path fill="#F44A08" d="M146 112h2v2l3-1-1 5-5-1z"/>
        <path fill="#891F0C" d="M149 106c2 1.375 2 1.375 4 4 .358 3.358.231 6.635 0 10h-1l-.586-5.957c-.34-2.343-.34-2.343-2.414-5.043z"/>
        <path fill="#96110F" d="m173 107 9 6-2 1c-2.164-.996-2.164-.996-4.625-2.437l-2.477-1.434L171 109z"/>
        <path fill="#F9ECEC" d="M16 86h4v4h-2l-1 3h-1z"/>
        <path fill="#FCC815" d="M106 72h3l1 7h-3z"/>
        <path fill="#D70D0F" d="M24 259c7.508.492 7.508.492 10 3.063L35 264l-2 1v-2l-3.375-.312L26 262z"/>
        <path fill="#921715" d="M39 255c3.791 1.45 7.387 3.152 11 5v1c-6.4-.37-6.4-.37-9.437-3.562z"/>
        <path fill="#B9090C" d="M192 198h2v4c-2.874 2.175-4.364 3-8 3a418 418 0 0 1 2.875-3.5l1.617-1.969z"/>
        <path fill="#8F1616" d="M175 190h2l-3 10h-1c-.25-6.625-.25-6.625 2-10"/>
        <path fill="#AC120F" d="M169 181h1l1 10h2l-1 3-3-1q-.29-2.437-.562-4.875l-.317-2.742C168 183 168 183 169 181"/>
        <path fill="#EB8C88" d="M215 154c1.981 2.972 2.743 4.494 3 8l-3 4z"/>
        <path fill="#FAFCE4" d="m97 139 4 1v6h-2z"/>
        <path fill="#F41408" d="m98 47 3 1v8c-1.777-2.666-2.875-5.028-4-8z"/>
        <path fill="#FBF8F9" d="M106 15c1.312 3.937.243 6.125-1 10h-2c-.37-5.415-.37-5.415 1.5-8.375z"/>
        <path fill="#E8908F" d="m111 3 2 1a195 195 0 0 1-.812 3.938l-.458 2.214L111 12l-3 1c.61-3.558 1.578-6.683 3-10"/>
        <path fill="#B60E10" d="M122 278c.813 1.688.813 1.688 1 4-2.437 2.75-2.437 2.75-5 5 .53-3.821 1.497-6.062 4-9"/>
        <path fill="#B80D12" d="m14 213 5 1v11h-1l-.312-3.75c-.426-3.53-1.17-5.622-3.688-8.25"/>
        <path fill="#180303" d="M142 211h5l-3 6h-2z"/>
        <path fill="#890D0D" d="M24 193c3.161 1.37 3.993 1.99 6 5l-2 2c-4-4.75-4-4.75-4-7"/>
        <path fill="#FDF543" d="m109 167 7 1-1 4h-3v-2l-3-1z"/>
        <path fill="#E53F0E" d="M75 112h1c2.125 6.625 2.125 6.625 1 10h-3z"/>
        <path fill="#E43C09" d="m147 84 1 2 3 1-2 1-1 3-2-1a100 100 0 0 1 0-5z"/>
        <path fill="#920C0E" d="m100 309 7 4-3 2-5-5z"/>
        <path fill="#A20E0E" d="M105 298c2 2 2 2 2 5l3-1v2l-5 1c-1.125-4.75-1.125-4.75 0-7"/>
        <path fill="#CA3132" d="M184 267v5l-4 1c0-3 0-3 1.438-4.687C183 267 183 267 184 267"/>
        <path fill="#E51E1C" d="M20 254h4v6c-2-1.312-2-1.312-4-3z"/>
        <path fill="#7D0C0D" d="M21 198h1v7l-3 1-1-6 2 1z"/>
        <path fill="#F73207" d="m137 184 7 1-4 5v-2l-3-1z"/>
        <path fill="#F99311" d="m61 170 2 1v3l-9-1v-1h7z"/>
        <path fill="#FCE920" d="m97 152 5 5-1 2-4-2v-2l-2-1z"/>
        <path fill="#FBEE70" d="M96 122c2.565 2.565 2.54 4.477 3 8h-3z"/>
        <path fill="#210603" d="m124 75 5 2v6h-1v-5l-4 1z"/>
        <path fill="#8E1515" d="m127 304 2 2-7 5v-3c2.5-2.187 2.5-2.187 5-4"/>
        <path fill="#F9E012" d="M131 150h2c.625 2.313.625 2.313 1 5l-2 3h-2z"/>
        <path fill="#FAF5A3" d="m101 146 1 4-6 1v-4c3-1 3-1 5-1"/>
        <path fill="#FCF885" d="M108 135h2l2 8-3-1z"/>
        <path fill="#FD960D" d="M146 131h4l-1 4v-2l-2 1v3h-2a100 100 0 0 1 0-5z"/>
        <path fill="#EAAEAD" d="M201 86h2c1.354 2.709 1.065 5.01 1 8-1.5-1.187-1.5-1.187-3-3-.187-2.687-.187-2.687 0-5"/>
        <path fill="#F86D36" d="M148 79c2.248 2.052 3.002 3.007 4 6l-4 1a129 129 0 0 1-1-6z"/>
        <path fill="#EB2619" d="m76 77 1 2 3-1 2 3-2 3v-3l-3 1z"/>
    </g>
</svg>
